<svg width="33" height="33" viewBox="0 0 33 33" fill="none" xmlns="http://www.w3.org/2000/svg">
<rect width="33" height="33" rx="6" fill="#A5D4F8"/>
<path d="M7.16667 15.3333H14.1667C14.4761 15.3333 14.7728 15.2104 14.9916 14.9916C15.2104 14.7728 15.3333 14.4761 15.3333 14.1667V7.16667C15.3333 6.85725 15.2104 6.5605 14.9916 6.34171C14.7728 6.12292 14.4761 6 14.1667 6H7.16667C6.85725 6 6.5605 6.12292 6.34171 6.34171C6.12292 6.5605 6 6.85725 6 7.16667V14.1667C6 14.4761 6.12292 14.7728 6.34171 14.9916C6.5605 15.2104 6.85725 15.3333 7.16667 15.3333ZM18.8333 15.3333H25.8333C26.1428 15.3333 26.4395 15.2104 26.6583 14.9916C26.8771 14.7728 27 14.4761 27 14.1667V7.16667C27 6.85725 26.8771 6.5605 26.6583 6.34171C26.4395 6.12292 26.1428 6 25.8333 6H18.8333C18.5239 6 18.2272 6.12292 18.0084 6.34171C17.7896 6.5605 17.6667 6.85725 17.6667 7.16667V14.1667C17.6667 14.4761 17.7896 14.7728 18.0084 14.9916C18.2272 15.2104 18.5239 15.3333 18.8333 15.3333ZM7.16667 27H14.1667C14.4761 27 14.7728 26.8771 14.9916 26.6583C15.2104 26.4395 15.3333 26.1427 15.3333 25.8333V18.8333C15.3333 18.5239 15.2104 18.2272 14.9916 18.0084C14.7728 17.7896 14.4761 17.6667 14.1667 17.6667H7.16667C6.85725 17.6667 6.5605 17.7896 6.34171 18.0084C6.12292 18.2272 6 18.5239 6 18.8333V25.8333C6 26.1427 6.12292 26.4395 6.34171 26.6583C6.5605 26.8771 6.85725 27 7.16667 27ZM22.3333 27C24.907 27 27 24.907 27 22.3333C27 19.7597 24.907 17.6667 22.3333 17.6667C19.7597 17.6667 17.6667 19.7597 17.6667 22.3333C17.6667 24.907 19.7597 27 22.3333 27Z" fill="#0E66A8"/>
</svg>
