<svg width="22" height="22" viewBox="0 0 22 22" fill="none" xmlns="http://www.w3.org/2000/svg">
<path d="M22 19.6277C22.0002 19.9392 21.939 20.2477 21.8199 20.5355C21.7008 20.8234 21.5262 21.0849 21.3059 21.3052C21.0857 21.5255 20.8243 21.7003 20.5365 21.8195C20.2487 21.9387 19.9402 22 19.6287 22H2.37057C2.05913 22 1.75075 21.9385 1.46305 21.8193C1.17535 21.7 0.913958 21.5253 0.693817 21.305C0.473675 21.0847 0.299095 20.8232 0.180048 20.5354C0.0610004 20.2476 -0.000180332 19.9392 3.9925e-07 19.6277V2.37122C3.7279e-07 1.74245 0.249734 1.13943 0.694282 0.694757C1.13883 0.250087 1.74179 0.00018241 2.37057 0L19.6287 0C20.2576 0 20.8608 0.249824 21.3055 0.694514C21.7502 1.1392 22 1.74233 22 2.37122V19.6277Z" fill="#97CBF2"/>
<path d="M6.72247 9.13201V5.64126C6.07277 6.14037 5.63552 6.38932 5.4104 6.38932C5.30327 6.38932 5.20762 6.34678 5.12523 6.26078C5.08544 6.2222 5.05383 6.176 5.03232 6.12493C5.0108 6.07385 4.99981 6.01896 5 5.96354C5 5.83318 5.04104 5.73753 5.12282 5.67536C5.2046 5.61411 5.34914 5.53535 5.55615 5.43818C5.86546 5.29243 6.11351 5.13944 6.29849 4.9783C6.48308 4.8175 6.64862 4.63607 6.79187 4.43755C6.93461 4.23718 7.02755 4.11497 7.071 4.0688C7.11416 4.02263 7.19714 4 7.31694 4C7.45213 4 7.56077 4.0522 7.64315 4.15722C7.72493 4.26223 7.76536 4.40677 7.76536 4.59054V8.98234C7.76536 9.49563 7.59064 9.75303 7.23999 9.75303C7.08458 9.75303 6.95905 9.70022 6.86399 9.59551C6.76924 9.4911 6.72247 9.336 6.72247 9.13201" fill="#0E66A8"/>
<path d="M14.7499 8.79981H16.7521C16.9513 8.79981 17.1034 8.84055 17.209 8.92233C17.3131 9.00411 17.3659 9.11576 17.3659 9.25607C17.3659 9.38161 17.3245 9.48722 17.2416 9.57443C17.1583 9.66164 17.0324 9.70509 16.8641 9.70509H14.0408C13.8488 9.70509 13.6992 9.65228 13.5914 9.54546C13.5405 9.49761 13.5 9.43976 13.4725 9.37553C13.445 9.31129 13.431 9.24206 13.4315 9.17218C13.4315 9.08015 13.4659 8.95763 13.5347 8.80555C13.6041 8.65406 13.6792 8.53427 13.761 8.44706C14.0593 8.13576 14.3662 7.83288 14.6814 7.53876C14.9551 7.2871 15.1509 7.12143 15.2683 7.04207C15.4781 6.89391 15.6522 6.74514 15.791 6.59577C15.9209 6.45991 16.0285 6.3044 16.11 6.13498C16.1798 5.99098 16.2171 5.83335 16.2192 5.67329C16.2192 5.50974 16.18 5.36309 16.1021 5.23393C16.0257 5.10625 15.9155 5.00214 15.7837 4.93308C15.649 4.86094 15.4982 4.82389 15.3453 4.82535C15.0094 4.82535 14.7463 4.97231 14.5541 5.26652C14.5293 5.30485 14.4862 5.41016 14.4261 5.58095C14.3658 5.75296 14.2982 5.88573 14.2233 5.97626C14.1476 6.0683 14.0374 6.11446 13.8911 6.11446C13.7631 6.11446 13.6572 6.07161 13.5727 5.98742C13.4879 5.90323 13.446 5.78826 13.446 5.64221C13.446 5.46568 13.4855 5.28191 13.5652 5.0903C13.6469 4.89419 13.7675 4.71669 13.9198 4.56855C14.0773 4.41255 14.2767 4.28641 14.5178 4.19045C14.7593 4.0951 15.0423 4.04681 15.3673 4.04681C15.7584 4.04681 16.0915 4.10777 16.3686 4.23119C16.5463 4.31169 16.7064 4.42632 16.8399 4.56855C17.1165 4.86067 17.2704 5.24779 17.2699 5.65006C17.2699 5.96721 17.1909 6.25659 17.0346 6.5152C16.877 6.77471 16.7159 6.97749 16.5529 7.12475C16.3888 7.27201 16.1145 7.50255 15.73 7.81668C15.345 8.13112 15.0815 8.37584 14.9382 8.54935C14.8692 8.62742 14.8062 8.71065 14.7499 8.79831" fill="#0E66A8"/>
<path d="M6.81046 14.7898C7.04584 14.7898 7.24923 14.7207 7.42002 14.5824C7.59022 14.4445 7.67441 14.2463 7.67441 13.988C7.67441 13.7909 7.60681 13.6213 7.47162 13.4804C7.33583 13.3377 7.15266 13.2668 6.92272 13.2668C6.76731 13.2668 6.63815 13.2888 6.53797 13.332C6.44504 13.3691 6.36259 13.4283 6.29776 13.5046C6.23832 13.5755 6.18279 13.6681 6.13059 13.7807C6.07838 13.8932 6.03101 13.9988 5.98695 14.0993C5.95726 14.1566 5.90816 14.2014 5.84844 14.2258C5.7763 14.2577 5.69799 14.2734 5.6191 14.2716C5.5165 14.2716 5.42295 14.23 5.33695 14.1467C5.25155 14.0637 5.2087 13.953 5.2087 13.8151C5.2087 13.6817 5.24974 13.542 5.3291 13.3953C5.40968 13.2484 5.52767 13.1078 5.68247 12.9747C5.83697 12.8422 6.0292 12.7354 6.25974 12.6545C6.48908 12.5739 6.74588 12.5335 7.03045 12.5335C7.27819 12.5335 7.50482 12.5682 7.70941 12.6355C7.90428 12.6979 8.08524 12.7974 8.24233 12.9285C8.39291 13.0568 8.50667 13.2046 8.58392 13.3739C8.66087 13.5429 8.6989 13.7242 8.6989 13.9189C8.6989 14.1745 8.64307 14.3939 8.53142 14.5758C8.42007 14.7596 8.26104 14.9373 8.05403 15.1117C8.25319 15.2189 8.42097 15.3417 8.55858 15.4793C8.69558 15.6181 8.79787 15.7705 8.86668 15.9383C8.93578 16.1054 8.96988 16.2868 8.96988 16.4814C8.96988 16.7141 8.92371 16.9392 8.83137 17.1558C8.7353 17.376 8.59475 17.5738 8.41856 17.737C8.23155 17.9112 8.01186 18.0466 7.77218 18.1354C7.52262 18.2313 7.24711 18.2796 6.94565 18.2796C6.63846 18.2796 6.36355 18.2241 6.12123 18.1139C5.87741 18.005 5.67764 17.8677 5.52072 17.7026C5.3632 17.5379 5.24431 17.3671 5.16374 17.1905C5.08317 17.014 5.04333 16.8689 5.04333 16.753C5.04333 16.6051 5.09132 16.485 5.18697 16.3948C5.28293 16.3034 5.40213 16.2587 5.54547 16.2587C5.61729 16.2587 5.68669 16.2792 5.75248 16.3221C5.81947 16.3643 5.86262 16.4147 5.88344 16.4733C6.01622 16.829 6.15865 17.0928 6.31044 17.2654C6.46343 17.4377 6.67678 17.5243 6.95319 17.5243C7.11872 17.5242 7.28142 17.4814 7.42561 17.4001C7.5698 17.3188 7.69061 17.2017 7.77641 17.0602C7.87237 16.9063 7.92035 16.7292 7.92035 16.527C7.92035 16.2276 7.83797 15.9926 7.67441 15.8233C7.51085 15.6531 7.28302 15.5683 6.99212 15.5683C6.94052 15.5683 6.86206 15.5731 6.75433 15.584C6.6466 15.593 6.5778 15.5985 6.54732 15.5985C6.407 15.5985 6.29777 15.5638 6.22082 15.4929C6.14417 15.4222 6.10645 15.3251 6.10645 15.1992C6.10645 15.0776 6.15262 14.9778 6.24405 14.9026C6.33609 14.8272 6.47339 14.7895 6.65475 14.7895H6.81106L6.81046 14.7898Z" fill="#0E66A8"/>
<path d="M15.8387 17.719V17.0065H13.9131C13.6699 17.0065 13.4879 16.9507 13.3669 16.8412C13.2453 16.731 13.1847 16.5814 13.1847 16.3922C13.1847 16.3436 13.1931 16.2944 13.2118 16.2446C13.229 16.1942 13.2562 16.142 13.2921 16.0874C13.328 16.0322 13.3654 15.979 13.4034 15.928C13.4418 15.877 13.4885 15.8149 13.5456 15.7401L15.5776 13.0212C15.7104 12.8426 15.82 12.7128 15.906 12.6316C15.9469 12.5923 15.9953 12.5615 16.0482 12.541C16.1011 12.5204 16.1576 12.5105 16.2144 12.5118C16.6033 12.5118 16.7974 12.7336 16.7974 13.1781V16.1474H16.9627C17.1592 16.1474 17.317 16.174 17.4359 16.228C17.5548 16.2814 17.6145 16.3991 17.6145 16.5807C17.6145 16.7289 17.5666 16.8369 17.4685 16.9048C17.3716 16.9727 17.2256 17.0071 17.0312 17.0071H16.7977V17.7196C16.7977 17.9163 16.7545 18.0633 16.6664 18.1586C16.5801 18.2543 16.4639 18.3029 16.3182 18.3029C16.1751 18.3029 16.0599 18.2534 15.9714 18.155C15.8827 18.0557 15.8387 17.9115 15.8387 17.7193V17.719ZM14.1892 16.1471H15.8387V13.9189L14.1892 16.1471Z" fill="#0E66A8"/>
</svg>
