<svg height="512" viewBox="0 0 512 512" width="512" xmlns="http://www.w3.org/2000/svg"><g id="BULINE"><circle cx="256" cy="256" fill="#00b564" r="256"/></g><g id="Icons"><path d="m484.8 370.93a257 257 0 0 1 -102.06 107.54 256 256 0 0 1 -355.54-107.54z" fill="#32314b"/><path d="m456.48 370.93s-2.45.4-6.59 1.2c-15.53 3-54.72 11.55-76.82 25.41-15.93 10-23 22.73-5.84 38.12 10.41 9.35 16.68 22.62 16.23 36.6a37.71 37.71 0 0 1 -.69 6.2 254.38 254.38 0 0 1 -42.62 19.38 142.27 142.27 0 0 1 -16.59-3.53 232.29 232.29 0 0 0 -83.63-7.2c-25.41 2.55-51.59 6.91-57.18 14.24a256.65 256.65 0 0 1 -155.55-130.42z" fill="#27273d"/><path d="m67.08 255.92h382.81a0 0 0 0 1 0 0v124.68a16.94 16.94 0 0 1 -16.94 16.94h-348.95a16.94 16.94 0 0 1 -16.92-16.94v-124.68a0 0 0 0 1 0 0z" fill="#db1b1b"/><path d="m449.88 369.64v11a16.93 16.93 0 0 1 -16.88 16.91h-349a17 17 0 0 1 -17-16.95v-124.68h29.62v96.79a16.93 16.93 0 0 0 16.93 16.93z" fill="#bc1d1d"/><path d="m67.08 248.33h382.81v39.22h-382.81z" fill="#a81b1b"/><path d="m210.07 287.55v36.93a8.4 8.4 0 0 0 8.42 8.4h42.25a8.4 8.4 0 0 0 8.41-8.4v-36.93zm42.06 36.72h-25a6.35 6.35 0 0 1 -6.36-6.35v-15.19a6.35 6.35 0 0 1 6.36-6.35h25a6.35 6.35 0 0 1 6.36 6.35v15.19a6.36 6.36 0 0 1 -6.36 6.35z" fill="#bc1d1d"/><path d="m111 109.34h295a55 55 0 0 1 55 55v81.66a17.51 17.51 0 0 1 -17.51 17.51h-370a17.51 17.51 0 0 1 -17.49-17.51v-81.64a55 55 0 0 1 55-55.02z" fill="#db1b1b"/><path d="m461 246.25a17.48 17.48 0 0 1 -17.49 17.23h-370a17.51 17.51 0 0 1 -17.51-17.48v-81.64a55 55 0 0 1 33.35-50.58 54.75 54.75 0 0 0 -11.26 33.34v81.62a17.51 17.51 0 0 0 17.52 17.51z" fill="#bc1d1d"/><rect fill="#e88032" height="59.08" rx="12.69" width="104.22" x="206.37" y="225.39"/><path d="m309.93 275.82a12.67 12.67 0 0 1 -12 8.65h-78.86a12.68 12.68 0 0 1 -12.7-12.69v-33.7a12.68 12.68 0 0 1 11.73-12.65 13 13 0 0 0 -.65 4v33.71a12.69 12.69 0 0 0 12.69 12.69h78.86c.3.03.62.01.93-.01z" fill="#ce6b29"/><path d="m228.94 284.47v36.93a8.53 8.53 0 0 0 .5 2.87 8.43 8.43 0 0 0 7.92 5.54h42.25a8.42 8.42 0 0 0 8.39-8.41v-36.93zm48.42 30.37a6.36 6.36 0 0 1 -6.36 6.35h-25a6.35 6.35 0 0 1 -6.36-6.35v-15.19a6.36 6.36 0 0 1 6.36-6.35h25a6.36 6.36 0 0 1 6.36 6.35z" fill="#fff"/><path d="m228.94 284.47h59.08v7.39h-59.08z" fill="#d6d6d6"/><ellipse cx="266.28" cy="241.71" fill="#ef9c62" rx="14.3" ry="6.62"/><ellipse cx="292.74" cy="241.71" fill="#ef9c62" rx="10.01" ry="4.63"/><path d="m333.24 113h-24.62v-48.73h-102.62v48.73h-24.57v-61a12.31 12.31 0 0 1 12.3-12.31h127.2a12.31 12.31 0 0 1 12.31 12.31z" fill="#db1b1b"/><path d="m176.68 93.07h35.7a5.08 5.08 0 0 1 5.08 5.08v11.51a0 0 0 0 1 0 0h-45.86a0 0 0 0 1 0 0v-11.51a5.08 5.08 0 0 1 5.08-5.08z" fill="#a81b1b"/><path d="m302.54 93.07h35.7a5.08 5.08 0 0 1 5.08 5.08v11.51a0 0 0 0 1 0 0h-45.86a0 0 0 0 1 0 0v-11.51a5.08 5.08 0 0 1 5.08-5.08z" fill="#a81b1b"/><g fill="#e84949"><ellipse cx="420.35" cy="153.18" rx="9.64" ry="18.26"/><ellipse cx="420.35" cy="188.46" rx="5.96" ry="11.28"/></g></g></svg>