<svg height="512" viewBox="0 0 512 512" width="512" xmlns="http://www.w3.org/2000/svg"><g id="BULINE"><circle cx="256" cy="256" fill="#00b564" r="256"/></g><g id="Icons"><path d="m262.35 322.69c.64-18.16 8.93-38.49 46.21-27.45a54.26 54.26 0 0 1 16.44 8.13c14.19 10.25 53.83 33 92.62 1.28 0 0 75.76-21.17 45.38 55.5 0 0-56.59 127.11-126 104.74a167.59 167.59 0 0 0 -18.71-4.9c-25.14-5-84.32-23.87-64-88.81a183.88 183.88 0 0 0 8.06-48.49z" fill="#02a054"/><path d="m314.14 28.43c-7.17-9.53-28.27-30.95-52.3 6.81a16.45 16.45 0 0 1 -1 1.48c-6.84 8.77-74.84 97.06-15.31 64.28 3.34-1.84 36-12.78 59.51-5.88 14.2 4.18 29.6 1.76 41.2-7.43 15.65-12.41 23.65-31.59-24.76-53.36a18.86 18.86 0 0 1 -7.34-5.9z" fill="#02a054"/><path d="m260.56 512c-1.52 0-3 0-4.56 0-141.38 0-256-114.62-256-256a254.83 254.83 0 0 1 24.86-110.16 5 5 0 0 1 -2.35-4.24v-28.26a5 5 0 1 1 10 0v17.72a257.12 257.12 0 0 1 63.61-75c21.29 4.95 41.26 15 43.58 35.36a34.41 34.41 0 0 1 -8.7 26.58c-7.13 8.06-18.47 23.46-20.35 41.51a46.46 46.46 0 0 0 2.1 19.77c4.17 12.54 14.35 25.51 34.25 37.62 0 0 93.7 43 56.93 109-16.84 30.21-22.5 65.46-14.37 99.07 8.44 35.03 27.83 72.36 71 87.03z" fill="#02a054"/><path d="m302.85 221.15v15.34a11.33 11.33 0 0 0 11.33 11.33h22v-28.67z" fill="#32314b"/><path d="m444.38 379.35v7.49h-136.59v-5.29a14.31 14.31 0 0 1 10.07-13.67l30-9.32a21.45 21.45 0 0 0 14.9-23.34l-8.63-64.37a15.78 15.78 0 0 0 -15.63-13.67 6 6 0 0 1 -6-6v-6.37a21.27 21.27 0 0 0 -21.28-21.28h-10.02a11.25 11.25 0 0 1 -11.2-11.23v-5.1l117.79 4.45v6.48a11.27 11.27 0 0 1 -4.22 8.77l-10.63 8.5 18.21 97.65a37.84 37.84 0 0 0 21.21 27.38 20.88 20.88 0 0 1 12.02 18.92z" fill="#e88032"/><path d="m366.63 358.56-30 9.32a14.31 14.31 0 0 0 -10.07 13.67v5.29h-18.56v-5.29a14.31 14.31 0 0 1 10.07-13.67l30-9.32a21.45 21.45 0 0 0 14.93-23.34l-8.63-64.37a15.78 15.78 0 0 0 -15.63-13.67 6 6 0 0 1 -6-6v-6.37a21.27 21.27 0 0 0 -21.28-21.28h-10.02a11.25 11.25 0 0 1 -11.23-11.23v-5.1l18.5.7v4.4a11.25 11.25 0 0 0 11.23 11.23h10.06a21.27 21.27 0 0 1 21.28 21.28v6.37a6 6 0 0 0 6 6 15.78 15.78 0 0 1 15.63 13.67l8.63 64.37a21.45 21.45 0 0 1 -14.91 23.34z" fill="#d16d2a"/><path d="m145.35 164.15h-15.67v-1.35a4.17 4.17 0 1 0 -8.33 0v1.35h-4v-1.35a4.17 4.17 0 1 0 -8.34 0v1.35h-4v-1.35a4.17 4.17 0 1 0 -8.33 0v1.35h-4v-1.35a4.17 4.17 0 1 0 -8.33 0v1.35h-4v-1.35a4.17 4.17 0 1 0 -8.34 0v1.35h-4.01v-1.35a4.17 4.17 0 1 0 -8.33 0v1.35h-4v-1.35a4.17 4.17 0 1 0 -8.33 0v1.35h-4v-1.35a4.17 4.17 0 1 0 -8.34 0v1.35h-2.5a5 5 0 1 0 0 10h2.5v1a4.17 4.17 0 1 0 8.34 0v-1h4v1a4.17 4.17 0 1 0 8.33 0v-1h4v1a4.17 4.17 0 1 0 8.33 0v-1h4v1a4.17 4.17 0 1 0 8.34 0v-1h4v1a4.17 4.17 0 1 0 8.33 0v-1h4v1a4.17 4.17 0 1 0 8.33 0v-1h4v1a4.17 4.17 0 0 0 8.34 0v-1h4v1a4.17 4.17 0 1 0 8.33 0v-1h5.5l74.63.34v-10.34z" fill="#bcbcbc"/><path d="m456.26 147.81v27.71a36.14 36.14 0 0 1 -36.13 36.13h-175.69a5.93 5.93 0 0 1 -5.93-5.94v-76.21a5.93 5.93 0 0 1 5.93-5.94h25.85a25.86 25.86 0 0 0 14.3-4.33 45 45 0 0 1 24.93-7.55h110.61a36.14 36.14 0 0 1 36.13 36.13z" fill="#e88032"/><path d="m214.77 132.47h23.74a0 0 0 0 1 0 0v73.24a0 0 0 0 1 0 0h-23.74a5 5 0 0 1 -5-5v-63.27a5 5 0 0 1 5-4.97z" fill="#32314b"/><rect fill="#4f4f74" height="39.71" rx="4.64" width="34.89" x="170.96" y="149.3"/><path d="m149.8 156h13.55a3.9 3.9 0 0 1 3.9 3.9v18.19a3.9 3.9 0 0 1 -3.9 3.9h-13.55a13 13 0 0 1 -13-13 13 13 0 0 1 13-12.99z" fill="#4f4f74"/><path d="m155 191.51a2.5 2.5 0 0 1 -2.5-2.5v-39.71a2.5 2.5 0 0 1 5 0v39.7a2.5 2.5 0 0 1 -2.5 2.51z" fill="#32314b"/><path d="m195.27 191.51a2.5 2.5 0 0 1 -2.5-2.5v-39.71a2.5 2.5 0 0 1 5 0v39.7a2.5 2.5 0 0 1 -2.5 2.51z" fill="#bcbcbc"/><path d="m181.54 191.51a2.5 2.5 0 0 1 -2.54-2.51v-39.7a2.5 2.5 0 0 1 5 0v39.7a2.5 2.5 0 0 1 -2.46 2.51z" fill="#bcbcbc"/><path d="m307.79 386.84h136.59a0 0 0 0 1 0 0v34.77a15.71 15.71 0 0 1 -15.71 15.71h-105.16a15.71 15.71 0 0 1 -15.71-15.71v-34.77a0 0 0 0 1 -.01 0z" fill="#32314b"/><path d="m336 407.82a10.17 10.17 0 0 1 10.13 10.18v19.33a0 0 0 0 1 0 0h-20.33a0 0 0 0 1 0 0v-19.33a10.17 10.17 0 0 1 10.2-10.18z" fill="#212133"/><path d="m362.71 407.82a10.17 10.17 0 0 1 10.17 10.18v19.33a0 0 0 0 1 0 0h-20.33a0 0 0 0 1 0 0v-19.33a10.17 10.17 0 0 1 10.17-10.17z" fill="#212133"/><path d="m389.46 407.82a10.17 10.17 0 0 1 10.17 10.18v19.33a0 0 0 0 1 0 0h-20.33a0 0 0 0 1 0 0v-19.33a10.17 10.17 0 0 1 10.17-10.17z" fill="#212133"/><path d="m416.21 407.82a10.17 10.17 0 0 1 10.17 10.18v19.33a0 0 0 0 1 0 0h-20.38a0 0 0 0 1 0 0v-19.33a10.17 10.17 0 0 1 10.17-10.17z" fill="#212133"/><g fill="#9e4830"><rect height="44.67" rx="10.77" width="112.87" x="304.73" y="144.34"/><rect height="30.84" rx="5.67" transform="matrix(0 -1 1 0 89.88 427.82)" width="11.33" x="253.18" y="153.55"/><rect height="30.84" rx="5.67" transform="matrix(0 -1 1 0 73.88 443.82)" width="11.33" x="253.18" y="169.55"/><rect height="30.84" rx="5.67" transform="matrix(0 -1 1 0 57.88 459.82)" width="11.33" x="253.18" y="185.55"/><rect height="30.84" rx="5.67" transform="matrix(0 -1 1 0 122.5 395.19)" width="11.33" x="253.18" y="120.93"/><rect height="30.84" rx="5.67" transform="matrix(0 -1 1 0 106.5 411.19)" width="11.33" x="253.18" y="136.93"/></g><path d="m407.76 211.65v6.48a11.16 11.16 0 0 1 -.75 4h-111.19a11.2 11.2 0 0 1 -5.82-9.83v-.65z" fill="#cc6723"/><path d="m227.01 132.47h11.5v73.24h-11.5z" fill="#212133"/><path d="m386.35 111.68v17.45a3.34 3.34 0 1 1 -6.67 0v-17.45z" fill="#cc6723"/><path d="m375.42 111.68v17.45a3.34 3.34 0 0 1 -3.34 3.34 3.35 3.35 0 0 1 -3.33-3.34v-17.45z" fill="#cc6723"/><path d="m364.49 111.68v17.45a3.34 3.34 0 1 1 -6.67 0v-17.45z" fill="#cc6723"/><path d="m353.56 111.68v17.45a3.34 3.34 0 0 1 -3.34 3.34 3.35 3.35 0 0 1 -3.33-3.34v-17.45z" fill="#cc6723"/><path d="m342.63 111.68v17.45a3.34 3.34 0 1 1 -6.67 0v-17.45z" fill="#cc6723"/><circle cx="368.75" cy="240.15" fill="#db1b1b" r="10.93"/><path d="m27.51 234.22a5 5 0 0 1 -5-5v-28.22a5 5 0 1 1 10 0v28.25a5 5 0 0 1 -5 4.97z" fill="#fff"/><path d="m73.17 220.1a5 5 0 0 1 -3.53-1.47l-20-20a5 5 0 1 1 7.07-7.07l20 20a5 5 0 0 1 -3.54 8.54z" fill="#fff"/><path d="m53.19 145.67a5 5 0 0 1 -3.53-8.54l20-20a5 5 0 0 1 7.07 7.07l-20 20a5 5 0 0 1 -3.54 1.47z" fill="#fff"/><path d="m32.51 113.34v28.26a5 5 0 1 1 -10 0v-28.26a5 5 0 1 1 10 0z" fill="#fff"/><ellipse cx="436.9" cy="153.36" fill="#f29b5f" rx="7.15" ry="14.54"/><ellipse cx="436.9" cy="180.47" fill="#f29b5f" rx="5.09" ry="10.35"/></g></svg>