<svg height="512" viewBox="0 0 512 512" width="512" xmlns="http://www.w3.org/2000/svg"><g id="BULINE"><circle cx="256" cy="256" fill="#fc4581" r="256"/></g><g id="Icons"><path d="m512 256.05a255.43 255.43 0 0 1 -70.22 176.14 302.36 302.36 0 0 1 -37.25-39.95 65.39 65.39 0 0 1 -13.94-41.45 64 64 0 0 1 .81-9.13c.23-1.44.42-2.84.55-4.2 3-30.38-17.65-39.88-34.25-42.67a62.4 62.4 0 0 0 -19.81-.08 66.59 66.59 0 0 0 -8.57 1.9c-88.49 25.89-118.36 10-125.12-14.15a48.21 48.21 0 0 1 -1.6-14.16c.65-27.1 18.84-50.66 44.56-59.23 2-.68 4.12-1.4 6.23-2.16 1-.36 2-.72 2.95-1.1a156.12 156.12 0 0 0 28.66-13.87c25.56-16.37 37.85-40.91-13.24-74-34.48-22.33-44.08-45.37-41.55-66.18 1.86-15.37 10.36-29.52 20.34-41.25 3.17-3.73 6.49-7.22 9.79-10.42 139.38 2.32 251.66 116.02 251.66 255.96z" fill="#ff5f99"/><path d="m480.23 379.66a256 256 0 0 1 -448.46 0z" fill="#a65c3b"/><path d="m276.9 460c-9 1.5-21.77 2.15-39.5 1.53 0 0-7.49-.47-18.42-.9-39.23-1.51-122.84-2.35-64.06 21.74 0 0 12.16 7.39 19.58 16.4a256.77 256.77 0 0 1 -142.73-119.11h193.29c-8.43 8.79-10.62 19 4.86 28.72a81.09 81.09 0 0 0 14 6.78 201.61 201.61 0 0 0 25.75 7.74l2.19.52a102.38 102.38 0 0 1 13.84 9.92c10.53 9.16 18.98 22.03-8.8 26.66z" fill="#9e4830"/><g fill="#843a29"><path d="m189.38 402.71h-106.49a5.22 5.22 0 0 1 0-10.44h106.49a5.22 5.22 0 0 1 0 10.44z"/><path d="m290.64 433.34h-106.48a5.22 5.22 0 0 1 0-10.44h106.48a5.22 5.22 0 1 1 0 10.44z"/><path d="m339.71 402.71h-48a5.22 5.22 0 0 1 0-10.44h48a5.22 5.22 0 0 1 0 10.44z"/><path d="m389.82 433.34h-48a5.22 5.22 0 0 1 0-10.44h48a5.22 5.22 0 0 1 0 10.44z"/><path d="m271.85 464h-48a5.22 5.22 0 0 1 0-10.44h48a5.22 5.22 0 0 1 0 10.44z"/><path d="m154.92 422.9h-48a5.22 5.22 0 0 1 0-10.44h48a5.22 5.22 0 1 1 0 10.44z"/></g><path d="m186.53 426.56a5.23 5.23 0 0 1 3.54-6.48l94.82-27.83a5.22 5.22 0 0 1 2.95 10l-94.84 27.85a5.22 5.22 0 0 1 -6.47-3.54z" fill="#ddd"/><ellipse cx="288.95" cy="396.5" fill="#fff" rx="9.66" ry="18.44" transform="matrix(.96 -.282 .282 .96 -99.97 97.43)"/><rect fill="#ddd" height="4.61" rx="2.31" transform="matrix(.282 .96 -.96 .282 588.02 7.57)" width="25.4" x="276.25" y="394.19"/><path d="m236.98 120.18h32.95v127h-32.95z" fill="#4f4f74" transform="matrix(.707 -.707 .707 .707 -55.65 233.02)"/><path d="m197.89 128.55-20.77 20.77 21.95 8.68a4.74 4.74 0 0 0 5.31-.95l11-11 11-11a4.74 4.74 0 0 0 1-5.31l-8.7-21.95z" fill="#32314b"/><path d="m104.05 117.29h35.94v30.95h-35.94z" fill="#32314b" transform="matrix(.707 -.707 .707 .707 -58.14 125.17)"/><rect fill="#3e436d" height="69.49" rx="17.37" transform="matrix(.707 -.707 .707 .707 -74.76 118.29)" width="39.8" x="85.5" y="114.64"/><path d="m133.38 170.29a17.78 17.78 0 0 1 -1.62 1.87l-3.58 3.58a17.38 17.38 0 0 1 -24.57 0l-24.56-24.57a17.36 17.36 0 0 1 0-24.57l3.57-3.6a15.72 15.72 0 0 1 1.87-1.62 17.38 17.38 0 0 0 1.61 22.7l24.57 24.57a17.38 17.38 0 0 0 22.71 1.64z" fill="#303656"/><path d="m166.07 39.58-48.07 48.09a11.06 11.06 0 0 0 0 15.64l46.45 46.45a11.06 11.06 0 0 0 15.64 0l40.27-40.27a11.06 11.06 0 0 0 0-15.64 13.24 13.24 0 0 1 -3.56-12.55c10.11-40.3 37.43-50.94 51.65-53.72a4.09 4.09 0 0 0 1.72-7.26c-46.31-35.15-104.1 19.26-104.1 19.26z" fill="#3e436d"/><path d="m209.66 106.33-35.86 35.86a4.8 4.8 0 0 1 -6.78 0l-39.81-39.81a4.79 4.79 0 0 1 6.79-6.78l36.41 36.4 30.21-30.21c-3-8.63-7.37-32.45 20.76-60.58a4.79 4.79 0 0 1 6.78 6.79c-29.67 29.67-17.8 52.4-17.68 52.63a4.78 4.78 0 0 1 -.82 5.7z" fill="#303656"/><ellipse cx="209.89" cy="28.26" fill="#5a618c" rx="15.38" ry="6.19" transform="matrix(.944 -.331 .331 .944 2.47 71.02)"/><ellipse cx="234.76" cy="19.55" fill="#5a618c" rx="8.59" ry="3.46" transform="matrix(.944 -.331 .331 .944 6.75 78.75)"/><path d="m433.91 333.35a21.78 21.78 0 1 1 -30.78 30.78l-4.65-4.95-13.69-14.56-71.68-76.29-13.68-14.56-12.73-13.54 23.3-23.29 13.54 12.72 14.56 13.68 76.29 71.66 14.61 13.7z" fill="#e88032"/><path d="m338.1 243.34-24.99 24.99-13.68-14.56 24.11-24.11z" fill="#eab692"/><path d="m428.95 328.7-30.47 30.48-13.69-14.56 29.6-29.6z" fill="#eab692"/><ellipse cx="89.29" cy="426.03" fill="#843928" rx="8.87" ry="4.96"/><path d="m88.75 427.59a5.22 5.22 0 0 1 -5.22-5.22v-98.82a5.22 5.22 0 1 1 10.44 0v98.82a5.22 5.22 0 0 1 -5.22 5.22z" fill="#ddd"/><ellipse cx="88.75" cy="320.85" fill="#fff" rx="18.44" ry="9.66"/><rect fill="#ddd" height="4.61" rx="2.31" width="25.4" x="76.05" y="318.54"/></g></svg>