<svg height="512" viewBox="0 0 512 512" width="512" xmlns="http://www.w3.org/2000/svg"><g id="BULINE"><circle cx="256" cy="256" fill="#00b564" r="256"/></g><g id="Icons"><path d="m476.13 386.75a256 256 0 0 1 -476.13-130.75q0-13 1.27-25.61c24.6-29.94 64.68-69.27 90.12-45.31a32.47 32.47 0 0 1 8.67 32.35c-7.89 28.42-22.09 94.51 24.69 70.06 0 0 76.88-35.65 77.47 56.81.17 26.16 20 48.07 45.75 50.28q1.47.14 3 .18h.03 2.85q4 0 8.33-.46c1.07-.1 2.16-.23 3.27-.37 16.14-2.17 35.73-8.66 59.23-22.22 0 0 113.51-68.2 66.61 23.63a26.17 26.17 0 0 0 -1.67 20 24.44 24.44 0 0 0 2.84 5.81c5.67 8.5 15.85 13.56 33.1-5.81a149.11 149.11 0 0 0 13.74-18.54c8.09-12.51 24.27-16.7 36.83-10.05z" fill="#02a054"/><path d="m456.4 415.3a256 256 0 0 1 -400.8 0z" fill="#a65c3b"/><ellipse cx="358.6" cy="441.49" fill="#b26344" rx="68.06" ry="11.57"/><ellipse cx="152.42" cy="434.83" fill="#b26344" rx="68.06" ry="11.57"/><ellipse cx="247.68" cy="464.16" fill="#b26344" rx="68.06" ry="11.57"/><ellipse cx="152.42" cy="428.29" fill="#9e4830" rx="27.67" ry="9.37"/><ellipse cx="358.6" cy="428.29" fill="#9e4830" rx="27.67" ry="9.37"/><ellipse cx="256.62" cy="428.29" fill="#9e4830" rx="27.67" ry="9.37"/><path d="m272.25 354.71a19.46 19.46 0 0 0 -3.21 1.62c-2.86 1.77-6.61 5-6.83 10v52.49l-5.46 12.86-5.81-12.86v-52.48c-.36-8.1-9.69-11.63-9.69-11.63z" fill="#69b6e0"/><path d="m272.25 354.71h-31s9.33 3.53 9.69 11.63v52.49l1.08 2.4 4.73 10.46 1.43-3.36-3.31-7.33-1-2.18v-52.48a10.77 10.77 0 0 0 -2.31-6.17 2.4 2.4 0 0 1 1.92-3.84h15.52a19.46 19.46 0 0 1 3.25-1.62z" fill="#4592ad"/><path d="m262.25 368.31v3.71l-11.27.85v-3.71z" fill="#52a2c6"/><path d="m262.25 376.59v3.71l-11.27.85v-3.71z" fill="#52a2c6"/><path d="m262.25 384.87v3.71l-11.27.84v-3.71z" fill="#52a2c6"/><path d="m262.25 393.15v3.71l-11.27.84v-3.71z" fill="#52a2c6"/><path d="m262.25 401.43v3.71l-11.27.85v-3.72z" fill="#52a2c6"/><path d="m262.25 409.71v3.71l-11.27.84v-3.71z" fill="#52a2c6"/><path d="m262.25 417.99v.84l-1.26 2.96-8.39.63-1.62-3.59z" fill="#52a2c6"/><path d="m274.45 351.61v2.16a.94.94 0 0 1 -.94.94h-33.51a.94.94 0 0 1 -.94-.94v-2.16a.85.85 0 0 1 .85-.86h12.8a.56.56 0 0 1 .56.48 2.91 2.91 0 0 0 2.87 2.43h1.24a2.9 2.9 0 0 0 2.86-2.43.58.58 0 0 1 .57-.48h12.8a.85.85 0 0 1 .84.86z" fill="#7cc8fb"/><g fill="#69b6e0"><rect height="3.7" rx="1.85" transform="matrix(.997 -.075 .075 .997 -26.88 20.21)" width="17.62" x="247.94" y="367.49"/><rect height="3.7" rx="1.85" transform="matrix(.997 -.075 .075 .997 -27.49 20.24)" width="17.62" x="247.94" y="375.77"/><rect height="3.7" rx="1.85" transform="matrix(.997 -.075 .075 .997 -28.11 20.26)" width="17.62" x="247.94" y="384.05"/><rect height="3.7" rx="1.85" transform="matrix(.997 -.075 .075 .997 -28.73 20.28)" width="17.62" x="247.94" y="392.33"/><rect height="3.7" rx="1.85" transform="matrix(.997 -.075 .075 .997 -29.35 20.31)" width="17.62" x="247.94" y="400.61"/><rect height="3.7" rx="1.85" transform="matrix(.997 -.075 .075 .997 -29.97 20.33)" width="17.62" x="247.94" y="408.89"/><rect height="3.7" rx="1.85" transform="matrix(.997 -.075 .075 .997 -30.59 20.35)" width="17.62" x="247.94" y="417.17"/></g><path d="m253.88 367.7v3.71l-2.94.23-1 .07a1.86 1.86 0 0 1 -2-1.71v-.14a1.84 1.84 0 0 1 1.71-1.84l1.27-.09z" fill="#52a2c6"/><path d="m250.94 376.2 2.94-.22v3.71l-2.94.22-1 .08a1.86 1.86 0 0 1 -2-1.71v-.14a1.84 1.84 0 0 1 1.71-1.84z" fill="#52a2c6"/><path d="m250.94 384.48 2.94-.22v3.74l-2.94.22-1 .08a1.86 1.86 0 0 1 -2-1.71v-.14a1.84 1.84 0 0 1 1.71-1.84z" fill="#52a2c6"/><path d="m250.94 392.76 2.94-.22v3.71l-2.94.22-1 .07a1.85 1.85 0 0 1 -2-1.7v-.14a1.84 1.84 0 0 1 1.71-1.84z" fill="#52a2c6"/><path d="m250.94 401 2.94-.22v3.71l-2.94.22-1 .07a1.85 1.85 0 0 1 -2-1.7v-.08a1.86 1.86 0 0 1 1.71-1.85z" fill="#52a2c6"/><path d="m250.94 409.32 2.94-.22v3.71l-2.94.22-1 .07a1.85 1.85 0 0 1 -2-1.7v-.14a1.86 1.86 0 0 1 1.71-1.85z" fill="#52a2c6"/><path d="m253.88 418.83 1 2.18-2.85.22-2.07.15a1.86 1.86 0 0 1 -2-1.71v-.13a1.86 1.86 0 0 1 1.71-1.85l1.27-.09 2.94-.22z" fill="#52a2c6"/><ellipse cx="265.75" cy="352.73" fill="#adddf7" rx="2.38" ry=".91"/><ellipse cx="270.26" cy="352.73" fill="#adddf7" rx="1.69" ry=".65"/><path d="m171 423.7v2.17a1 1 0 0 1 -.95.94h-33.55a.94.94 0 0 1 -.94-.94v-2.17a.85.85 0 0 1 .86-.85h12.79a.58.58 0 0 1 .57.47 2.9 2.9 0 0 0 2.86 2.43h1.24a2.9 2.9 0 0 0 2.87-2.43.56.56 0 0 1 .56-.47h12.8a.86.86 0 0 1 .89.85z" fill="#7cc8fb"/><ellipse cx="162.26" cy="424.83" fill="#adddf7" rx="2.38" ry=".91"/><ellipse cx="166.77" cy="424.83" fill="#adddf7" rx="1.69" ry=".65"/><path d="m376.3 423.7v2.17a.94.94 0 0 1 -.94.94h-33.52a1 1 0 0 1 -.95-.94v-2.17a.86.86 0 0 1 .86-.85h12.8a.56.56 0 0 1 .56.47 2.9 2.9 0 0 0 2.87 2.43h1.23a2.94 2.94 0 0 0 2.06-.85 2.86 2.86 0 0 0 .81-1.58.58.58 0 0 1 .57-.47h12.79a.85.85 0 0 1 .86.85z" fill="#7cc8fb"/><ellipse cx="367.6" cy="424.83" fill="#adddf7" rx="2.38" ry=".91"/><ellipse cx="372.11" cy="424.83" fill="#adddf7" rx="1.69" ry=".65"/><rect fill="#db1b1b" height="13.19" rx="3.04" width="51.58" x="230.96" y="133.84"/><path d="m237.53 124.06h39.03v9.78h-39.03z" fill="#b71a1a"/><rect fill="#b71a1a" height="9.04" rx="2.27" width="4.55" x="235.58" y="135.92"/><rect fill="#b71a1a" height="9.04" rx="2.27" width="4.55" x="243.14" y="135.92"/><rect fill="#b71a1a" height="9.04" rx="2.27" width="4.55" x="250.7" y="135.92"/><rect fill="#b71a1a" height="9.04" rx="2.27" width="4.55" x="258.26" y="135.92"/><rect fill="#b71a1a" height="9.04" rx="2.27" width="4.55" x="265.82" y="135.92"/><rect fill="#b71a1a" height="9.04" rx="2.27" width="4.55" x="273.38" y="135.92"/><path d="m256.73 6.66a20.93 20.93 0 0 1 20.97 20.94v96a2.49 2.49 0 0 1 -2.49 2.49h-36.92a2.49 2.49 0 0 1 -2.49-2.49v-96a20.93 20.93 0 0 1 20.93-20.94z" fill="#db1b1b"/><path d="m265.37 337a3.41 3.41 0 0 1 -3.41 3.13h-10.43a3.42 3.42 0 0 1 -3.41-3.13l-1.92-23a7.42 7.42 0 0 1 .31-2.81l4.19-13.15v-151.04h12.1v151l4.2 13.23a7.23 7.23 0 0 1 .32 2.81z" fill="#d3d3d3"/><path d="m251.32 311.23 4.18-13.15v-151.08h-4.74v151l-4.18 13.15a7.21 7.21 0 0 0 -.32 2.81l1.93 23a3.41 3.41 0 0 0 3.41 3.13h4.74a3.43 3.43 0 0 1 -3.41-3.13l-1.93-22.96a7.21 7.21 0 0 1 .32-2.77z" fill="#bababa"/><rect fill="#a31a1a" height="94.57" rx="4.92" width="9.83" x="237.85" y="25.93"/><rect fill="#a31a1a" height="94.57" rx="4.92" width="9.83" x="251.83" y="25.93"/><rect fill="#a31a1a" height="94.57" rx="4.92" width="9.83" x="265.82" y="25.93"/><path d="m250.7 147.03h12.11v4.55h-12.11z" fill="#939393"/></g></svg>