<svg width="500" height="318" viewBox="0 0 500 318" fill="none" xmlns="http://www.w3.org/2000/svg">
<g clip-path="url(#clip0)">
<path d="M382.812 314.404C376.41 308.65 372.522 299.56 373.542 290.711C374.562 281.862 380.877 273.727 389.07 271.848C397.262 269.969 406.601 275.17 409.089 283.684C410.458 267.27 412.037 250.169 420.24 236.192C427.667 223.536 440.532 214.48 454.474 212.86C468.417 211.24 483.097 217.359 491.792 229.065C500.488 240.772 502.617 257.791 496.527 271.231C492.04 281.132 483.775 288.501 475.115 294.495C447.131 313.703 413.568 321.514 380.601 316.491L382.812 314.404Z" fill="#0E66A8"/>
<path d="M478.005 217.698C466.5 227.666 455.946 238.815 446.495 250.983C431.704 269.96 419.736 291.237 411.006 314.073C410.366 315.739 412.909 316.464 413.541 314.817C427.825 277.704 450.628 244.993 479.864 219.676C481.177 218.539 479.307 216.57 478.005 217.698Z" fill="white"/>
<path d="M160.958 312.84C169.75 304.937 175.091 292.452 173.69 280.298C172.29 268.144 163.615 256.971 152.363 254.39C141.111 251.809 128.284 258.953 124.866 270.646C122.985 248.103 120.818 224.614 109.551 205.417C99.3493 188.033 81.6795 175.595 62.5294 173.37C43.3794 171.144 23.2168 179.549 11.2736 195.628C-0.669596 211.707 -3.59384 235.083 4.77087 253.543C10.9328 267.142 22.2854 277.262 34.18 285.496C72.128 311.764 119.203 322.719 163.995 315.707" fill="#0E66A8"/>
<path d="M30.2107 180.015C46.0119 193.706 60.5078 209.019 73.4888 225.731C86.4718 242.427 97.902 260.422 107.619 279.465C113.05 290.148 117.929 301.138 122.234 312.386C123.112 314.674 119.619 315.67 118.751 313.407C111.126 293.577 101.692 274.589 90.5849 256.716C79.5317 238.908 66.8808 222.283 52.8097 207.073C44.8511 198.475 36.4541 190.349 27.6567 182.732C25.8535 181.17 28.4224 178.466 30.2107 180.015L30.2107 180.015Z" fill="white"/>
<path d="M358.908 317.304H149.138V88.3438C149.138 39.6308 186.392 0 232.184 0H275.862C321.654 0 358.908 39.6308 358.908 88.3438V317.304Z" fill="#F2F2F2"/>
<path d="M315.23 317.304H149.138V88.3438C149.092 69.6781 154.648 51.4841 164.998 36.4109C165.379 35.8577 165.76 35.3117 166.152 34.7717C171.158 27.7874 177.115 21.6364 183.827 16.5218C184.206 16.2283 184.587 15.9399 184.973 15.6516C190.589 11.5171 196.664 8.13724 203.06 5.58895C203.44 5.4358 203.827 5.28236 204.214 5.13518C209.998 2.93917 215.994 1.43491 222.092 0.650176C222.47 0.595244 222.858 0.552259 223.246 0.509273C229.188 -0.166584 235.181 -0.166584 241.123 0.509273C241.51 0.552259 241.898 0.595239 242.28 0.650764C248.376 1.43555 254.371 2.93962 260.154 5.13521C260.541 5.28238 260.928 5.43582 261.309 5.58926C267.626 8.10542 273.629 11.4348 279.186 15.5032C279.572 15.7853 279.958 16.0737 280.339 16.3621C284.101 19.2189 287.635 22.4015 290.904 25.8775C293.526 28.6656 295.969 31.6376 298.217 34.7735C298.608 35.3117 298.989 35.8577 299.37 36.41C309.719 51.4834 315.276 69.6777 315.23 88.3438V317.304Z" fill="#CCCCCC"/>
<path d="M301.724 214.899C306.803 214.899 310.919 210.519 310.919 205.117C310.919 199.714 306.803 195.335 301.724 195.335C296.646 195.335 292.529 199.714 292.529 205.117C292.529 210.519 296.646 214.899 301.724 214.899Z" fill="#0E66A8"/>
<path d="M341.724 310.446H334.678L331.325 281.535L341.725 281.536L341.724 310.446Z" fill="#FFB8B8"/>
<path d="M329.645 308.304H343.233V317.406H321.089C321.089 316.211 321.31 315.027 321.74 313.923C322.17 312.819 322.8 311.815 323.595 310.97C324.389 310.125 325.333 309.455 326.371 308.997C327.409 308.54 328.521 308.304 329.645 308.304Z" fill="#2F2E41"/>
<path d="M376.781 310.446H369.735L366.383 281.535L376.782 281.536L376.781 310.446Z" fill="#FFB8B8"/>
<path d="M364.702 308.304H378.29V317.406H356.146C356.146 316.211 356.368 315.027 356.798 313.923C357.228 312.819 357.858 311.815 358.652 310.97C359.447 310.125 360.39 309.455 361.428 308.997C362.466 308.54 363.579 308.304 364.702 308.304Z" fill="#2F2E41"/>
<path d="M306.378 207.054C305.871 206.26 305.534 205.357 305.391 204.409C305.247 203.461 305.301 202.491 305.548 201.568C305.796 200.644 306.23 199.789 306.821 199.064C307.412 198.338 308.146 197.76 308.97 197.368L332.922 127.142L344.708 133.984L317.36 201.095C317.886 202.611 317.871 204.281 317.318 205.786C316.764 207.292 315.711 208.529 314.357 209.264C313.004 209.998 311.444 210.179 309.973 209.772C308.502 209.365 307.223 208.398 306.378 207.054Z" fill="#FFB8B8"/>
<path d="M373.182 220.25C372.399 219.773 371.724 219.118 371.204 218.333C370.685 217.548 370.333 216.651 370.175 215.706C370.016 214.761 370.054 213.79 370.287 212.862C370.519 211.934 370.94 211.072 371.519 210.336L364.099 136.048L377.512 136.7L380.595 209.772C381.693 210.889 382.368 212.396 382.491 214.008C382.614 215.619 382.178 217.222 381.264 218.514C380.35 219.806 379.023 220.696 377.533 221.016C376.043 221.336 374.495 221.063 373.182 220.25Z" fill="#FFB8B8"/>
<path d="M351.785 114.134C359.581 114.134 365.9 107.411 365.9 99.1178C365.9 90.8246 359.581 84.1017 351.785 84.1017C343.989 84.1017 337.669 90.8246 337.669 99.1178C337.669 107.411 343.989 114.134 351.785 114.134Z" fill="#FFB8B8"/>
<path d="M373.092 203.355H330.536L330.587 203.003C330.664 202.476 338.172 150.156 332.634 133.039C332.079 131.357 332.127 129.516 332.771 127.87C333.415 126.224 334.609 124.889 336.122 124.123H336.123C344.037 120.158 359.23 115.276 372.054 127.125C373.941 128.897 375.414 131.112 376.358 133.594C377.301 136.077 377.689 138.759 377.49 141.428L373.092 203.355Z" fill="#D0CDE1"/>
<path d="M338.709 157.888L319.55 153.753L328.531 131.114C329.068 128.921 330.401 127.045 332.238 125.896C334.074 124.748 336.263 124.421 338.326 124.987C340.388 125.554 342.156 126.967 343.24 128.918C344.324 130.868 344.637 133.197 344.109 135.392L338.709 157.888Z" fill="#D0CDE1"/>
<path d="M363.247 165.565L362.096 137.478C361.222 132.198 364.063 127.207 368.433 126.391C372.804 125.578 377.072 129.24 377.949 134.559L382.279 160.804L363.247 165.565Z" fill="#D0CDE1"/>
<path d="M371.676 199.992C378.523 227.735 379.27 263.006 377.423 301.481L368.228 300.258L351.561 226.893L342.366 301.481L332.021 300.869C328.93 260.5 325.921 225.844 330.871 203.049L371.676 199.992Z" fill="#2F2E41"/>
<path d="M361.086 110.723C358.452 113.707 353.562 112.105 353.219 108.028C353.192 107.712 353.194 107.393 353.225 107.077C353.402 105.271 354.382 103.632 354.148 101.725C354.094 101.251 353.928 100.799 353.665 100.412C351.566 97.4223 346.64 101.749 344.66 99.0425C343.446 97.3832 344.873 94.7707 343.941 92.9161C342.711 90.4685 339.068 91.6759 336.784 90.3354C334.242 88.844 334.394 84.6954 336.067 82.1719C338.108 79.0945 341.686 77.4524 345.219 77.2157C348.752 76.9791 352.261 77.9951 355.559 79.3626C359.307 80.9163 363.023 83.0635 365.33 86.5692C368.134 90.8324 368.404 96.5639 367.001 101.549C366.148 104.581 363.236 108.286 361.086 110.723Z" fill="#2F2E41"/>
<path d="M482.748 317.697H58.4412C58.26 317.697 58.0865 317.62 57.9586 317.483C57.8307 317.347 57.7589 317.162 57.7589 316.969C57.7589 316.777 57.8307 316.592 57.9586 316.455C58.0865 316.319 58.26 316.242 58.4412 316.241H482.748C482.929 316.242 483.103 316.319 483.231 316.455C483.359 316.592 483.43 316.777 483.43 316.969C483.43 317.162 483.359 317.347 483.231 317.483C483.103 317.62 482.929 317.697 482.748 317.697Z" fill="#3F3D56"/>
<path d="M269.54 250.97H194.828C193.844 250.975 192.898 250.566 192.197 249.83C191.497 249.095 191.1 248.094 191.092 247.048V69.645C191.1 68.5983 191.497 67.5975 192.197 66.8623C192.898 66.127 193.844 65.7172 194.828 65.7229H269.54C270.524 65.7172 271.47 66.127 272.17 66.8623C272.871 67.5975 273.268 68.5983 273.276 69.645V247.048C273.268 248.094 272.871 249.095 272.17 249.83C271.47 250.566 270.524 250.975 269.54 250.97Z" fill="white"/>
<path d="M273.276 123.125H191.092V124.347H273.276V123.125Z" fill="#CCCCCC"/>
<path d="M273.563 192.889H191.379V194.112H273.563V192.889Z" fill="#CCCCCC"/>
<path d="M218.103 65.7229H216.954V251.581H218.103V65.7229Z" fill="#CCCCCC"/>
<path d="M246.839 65.7229H245.69V251.581H246.839V65.7229Z" fill="#CCCCCC"/>
</g>
<defs>
<clipPath id="clip0">
<rect width="500" height="318" fill="white"/>
</clipPath>
</defs>
</svg>
