<svg height="512" viewBox="0 0 512 512" width="512" xmlns="http://www.w3.org/2000/svg"><g id="BULINE"><circle cx="256" cy="256" fill="#f55b4b" r="256"/></g><g id="Icons"><path d="m487.77 364.83c-40.9 86.96-129.31 147.17-231.77 147.17-137.19 0-249.19-107.93-255.7-243.51 31.82-23.19 78.25-44.23 97.84 10.37a98.78 98.78 0 0 1 5.15 42.14c-2.92 32.53-4.52 109.93 52.59 69.47 1.91-1.35 3.75-2.81 5.56-4.3 8.36-6.93 40.52-32.62 73.38-46.53 14.16-6 28.45-9.81 41-9 16.8 1.09 30.53 10.47 36.77 34a80.86 80.86 0 0 1 1.5 33.43c-3.32 21.13-7.08 67.36 25.52 59.66a40.51 40.51 0 0 0 19.55-11.28c20.31-20.88 92.96-92.15 128.61-81.62z" fill="#d14a3f"/><path d="m239.75 45.24h-76.75a3.65 3.65 0 0 1 -3.66-3.65v-3.72a3.65 3.65 0 0 1 2.3-3.39l53.49-21.48h68.2a3.18 3.18 0 0 1 3.18 3.18v29h28.35a1.75 1.75 0 0 1 .93 3.24l-12.48 7.8a8.35 8.35 0 0 1 -4.42 1.27h-28z" fill="#41c0e3"/><path d="m234.82 85.44v34.46h-18l-7.1-2.9-48.12-20a3.64 3.64 0 0 1 -2.26-3.37v-4.53a3.66 3.66 0 0 1 3.66-3.66z" fill="#41c0e3"/><path d="m234.82 13h41a0 0 0 0 1 0 0v457.67a2 2 0 0 1 -2 2h-37a2 2 0 0 1 -2-2v-457.67a0 0 0 0 1 0 0z" fill="#7cc8fb"/><path d="m275.85 69.86h22.43a8.33 8.33 0 0 1 4.08 1.06l12.76 7.14a1.75 1.75 0 0 1 -.86 3.28h-30.21v18h-8.2z" fill="#41c0e3"/><path d="m268.85 176.1h-7.5a4.24 4.24 0 0 1 -4.24-4.24v-68.22a4.24 4.24 0 0 1 4.24-4.25h7.5a4.24 4.24 0 0 0 -4.24 4.25v68.22a4.24 4.24 0 0 0 4.24 4.24z" fill="#41c0e3"/><path d="m287.33 128.52h18a2.9 2.9 0 0 1 2.9 2.9v11.42a2.9 2.9 0 0 1 -2.9 2.9h-18a0 0 0 0 1 0 0v-17.22a0 0 0 0 1 0 0z" fill="#41c0e3"/><path d="m263.07 505.1-17-7.94a2.12 2.12 0 0 1 -1.22-1.91v-22.55h20.46v31a1.55 1.55 0 0 1 -2.24 1.4z" fill="#41c0e3"/><path d="m244.82 472.7h20.46v6.59h-20.46z" fill="#39aac4"/><path d="m226.07 13.04h8.75v32.2h-8.75z" fill="#3aa7c1"/><path d="m275.85 13.04h6.23v44.51h-6.23z" fill="#3aa7c1"/><path d="m275.85 69.86h6.23v29.54h-6.23z" fill="#3aa7c1"/><path d="m219.57 85.44v34.46h-2.8l-7.05-2.92v-31.54z" fill="#3aa7c1"/><path d="m287.33 128.52h6.23v17.23h-6.23z" fill="#3aa7c1"/><rect fill="#b9e2f9" height="76.71" rx="4.25" width="22.97" x="264.36" y="99.39"/><path d="m276.1 176.1h-7.5a4.24 4.24 0 0 1 -4.24-4.24v-68.22a4.24 4.24 0 0 1 4.24-4.25h7.5a4.24 4.24 0 0 0 -4.24 4.25v68.22a4.24 4.24 0 0 0 4.24 4.24z" fill="#a8d0e2"/><g fill="#fff"><path d="m234.82 55h24.28a3.87 3.87 0 0 1 3.9 3.91 3.87 3.87 0 0 1 -3.87 3.87h-24.31a0 0 0 0 1 0 0v-7.78a0 0 0 0 1 0 0z"/><path d="m234.82 74.16h24.28a3.87 3.87 0 0 1 3.9 3.84 3.87 3.87 0 0 1 -3.87 3.87h-24.31a0 0 0 0 1 0 0v-7.71a0 0 0 0 1 0 0z"/><path d="m234.82 93.29h24.28a3.87 3.87 0 0 1 3.9 3.87 3.87 3.87 0 0 1 -3.87 3.87h-24.31a0 0 0 0 1 0 0v-7.74a0 0 0 0 1 0 0z"/><path d="m234.82 112.41h24.28a3.87 3.87 0 0 1 3.87 3.87 3.87 3.87 0 0 1 -3.87 3.87h-24.28a0 0 0 0 1 0 0v-7.75a0 0 0 0 1 0 .01z"/><path d="m234.82 131.54h24.28a3.87 3.87 0 0 1 3.87 3.87 3.87 3.87 0 0 1 -3.87 3.87h-24.28a0 0 0 0 1 0 0v-7.75a0 0 0 0 1 0 .01z"/><path d="m234.82 150.66h24.28a3.87 3.87 0 0 1 3.87 3.87 3.87 3.87 0 0 1 -3.87 3.87h-24.28a0 0 0 0 1 0 0v-7.75a0 0 0 0 1 0 .01z"/><path d="m234.82 169.79h24.28a3.87 3.87 0 0 1 3.87 3.87 3.87 3.87 0 0 1 -3.87 3.87h-24.28a0 0 0 0 1 0 0v-7.75a0 0 0 0 1 0 .01z"/><path d="m234.82 188.91h24.28a3.87 3.87 0 0 1 3.87 3.87 3.87 3.87 0 0 1 -3.87 3.87h-24.28a0 0 0 0 1 0 0v-7.75a0 0 0 0 1 0 .01z"/><path d="m234.82 208h24.28a3.87 3.87 0 0 1 3.87 3.87 3.87 3.87 0 0 1 -3.87 3.87h-24.28a0 0 0 0 1 0 0v-7.74a0 0 0 0 1 0 0z"/><path d="m234.82 227.16h24.28a3.87 3.87 0 0 1 3.9 3.84 3.87 3.87 0 0 1 -3.87 3.87h-24.31a0 0 0 0 1 0 0v-7.75a0 0 0 0 1 0 .04z"/><path d="m234.82 246.29h24.28a3.87 3.87 0 0 1 3.87 3.87 3.87 3.87 0 0 1 -3.87 3.87h-24.28a0 0 0 0 1 0 0v-7.75a0 0 0 0 1 0 .01z"/><path d="m234.82 265.41h24.28a3.87 3.87 0 0 1 3.87 3.87 3.87 3.87 0 0 1 -3.87 3.87h-24.28a0 0 0 0 1 0 0v-7.75a0 0 0 0 1 0 .01z"/><path d="m234.82 284.54h24.28a3.87 3.87 0 0 1 3.87 3.87 3.87 3.87 0 0 1 -3.87 3.87h-24.28a0 0 0 0 1 0 0v-7.75a0 0 0 0 1 0 .01z"/><path d="m234.82 303.66h24.28a3.87 3.87 0 0 1 3.87 3.87 3.87 3.87 0 0 1 -3.87 3.87h-24.28a0 0 0 0 1 0 0v-7.75a0 0 0 0 1 0 .01z"/><path d="m234.82 322.79h24.28a3.87 3.87 0 0 1 3.87 3.87 3.87 3.87 0 0 1 -3.87 3.87h-24.28a0 0 0 0 1 0 0v-7.75a0 0 0 0 1 0 0z"/><path d="m234.82 341.91h24.28a3.87 3.87 0 0 1 3.87 3.87 3.87 3.87 0 0 1 -3.87 3.87h-24.28a0 0 0 0 1 0 0v-7.75a0 0 0 0 1 0 0z"/><path d="m234.82 361h24.28a3.87 3.87 0 0 1 3.87 3.87 3.87 3.87 0 0 1 -3.87 3.87h-24.28a0 0 0 0 1 0 0v-7.74a0 0 0 0 1 0 0z"/><path d="m234.82 380.16h24.28a3.87 3.87 0 0 1 3.9 3.84 3.87 3.87 0 0 1 -3.87 3.87h-24.31a0 0 0 0 1 0 0v-7.75a0 0 0 0 1 0 .04z"/><path d="m234.82 399.29h24.28a3.87 3.87 0 0 1 3.87 3.87 3.87 3.87 0 0 1 -3.87 3.87h-24.28a0 0 0 0 1 0 0v-7.75a0 0 0 0 1 0 .01z"/><path d="m234.82 418.41h24.28a3.87 3.87 0 0 1 3.87 3.87 3.87 3.87 0 0 1 -3.87 3.87h-24.28a0 0 0 0 1 0 0v-7.75a0 0 0 0 1 0 .01z"/></g><rect fill="#b9e2f9" height="90.66" rx="4.25" width="29.54" x="215.95" y="85.44"/><path d="m227.69 176.1h-7.5a4.24 4.24 0 0 1 -4.24-4.24v-82.17a4.25 4.25 0 0 1 4.24-4.25h7.5a4.25 4.25 0 0 0 -4.24 4.25v82.17a4.24 4.24 0 0 0 4.24 4.24z" fill="#a8d0e2"/></g></svg>