<svg width="23" height="23" viewBox="0 0 23 23" fill="none" xmlns="http://www.w3.org/2000/svg">
<path d="M22.657 20.235C22.6572 20.5464 22.5961 20.8549 22.477 21.1428C22.358 21.4306 22.1835 21.6922 21.9633 21.9126C21.7432 22.1329 21.4818 22.3078 21.194 22.4271C20.9063 22.5465 20.5979 22.608 20.2864 22.6081H3.02692C1.7182 22.6081 0.65698 21.546 0.65698 20.235V2.97984C0.656797 2.35112 0.906362 1.74806 1.35079 1.30329C1.79522 0.858523 2.39813 0.60846 3.02692 0.608095H20.2864C20.5978 0.608185 20.9061 0.669604 21.1938 0.788844C21.4814 0.908085 21.7428 1.08281 21.9629 1.30305C22.1831 1.52329 22.3576 1.78472 22.4767 2.07242C22.5958 2.36013 22.6571 2.66847 22.657 2.97984V20.235Z" fill="#97CBF2"/>
<path d="M9.17902 13.5732V11.3516C9.17902 10.2997 8.54838 9.76636 7.30392 9.76636C6.6458 9.76636 6.20629 9.88573 5.83143 10.1658C5.73141 10.2419 5.39472 10.5194 5.26696 10.9057C5.25704 10.9448 5.24431 10.9937 5.24431 11.0501C5.24431 11.2722 5.40719 11.4665 5.64157 11.5372C5.7197 11.5696 5.80852 11.5856 5.91235 11.5856C6.15768 11.5856 6.34499 11.4621 6.42643 11.2473C6.51601 11.012 6.68881 10.7713 7.29526 10.7713C7.93175 10.7713 8.05874 10.993 8.05874 11.3511V11.5117C7.29272 11.5318 6.86263 11.5827 6.41192 11.7015C5.5016 11.9435 5 12.5302 5 13.3533C5 14.3008 5.64463 14.89 6.6827 14.89C7.37212 14.89 7.81341 14.6842 8.12211 14.4417C8.12211 14.4543 8.12745 14.4662 8.13051 14.4778C8.15443 14.5821 8.25546 14.8245 8.67716 14.8245L8.76852 14.8241C9.07391 14.8003 9.28666 14.614 9.28666 14.3708C9.28666 14.3179 9.27216 14.264 9.26071 14.2314C9.21999 14.1041 9.178 13.8518 9.178 13.5732H9.17902ZM7.88492 13.3708C7.75623 13.5284 7.59254 13.6556 7.40609 13.7431C7.21964 13.8306 7.01524 13.876 6.80817 13.876C6.41447 13.876 6.16965 13.679 6.16965 13.3617C6.16965 13.0545 6.28951 12.8649 6.57098 12.7287C6.86721 12.5846 7.29348 12.5144 8.059 12.4867V12.8328C8.059 13.1123 8.00733 13.22 7.88492 13.3708" fill="#0E66A8"/>
<path d="M12.3088 9.76614C11.7662 9.76614 11.3193 9.92728 10.9742 10.2476V8.51926C10.9742 8.2039 10.751 8 10.4062 8C10.0509 8 9.83026 8.19896 9.83026 8.51926V14.3061C9.83026 14.6259 10.0512 14.8248 10.4062 14.8248C10.71 14.8248 10.9248 14.6662 10.9668 14.4212C11.2992 14.7351 11.7443 14.8982 12.2838 14.8982C13.6217 14.8982 14.4859 13.8802 14.4859 12.3041C14.4859 10.7387 13.6515 9.76614 12.3088 9.76614V9.76614ZM13.3158 12.3115C13.3158 13.2858 12.8923 13.8684 12.1828 13.8684C11.4384 13.8684 10.9572 13.2604 10.9572 12.32C10.9572 11.579 11.286 10.7881 12.2077 10.7881C13.2081 10.7881 13.3158 11.8536 13.3158 12.3115Z" fill="#0E66A8"/>
<path d="M18.796 12.9556C18.7204 12.9276 18.64 12.9136 18.5591 12.9144C18.3262 12.9144 18.1455 13.0407 18.0605 13.2634C17.9226 13.6457 17.7259 13.883 17.1759 13.883C16.1686 13.883 16.0177 12.9129 16.0177 12.3346C16.0177 11.3603 16.4473 10.7785 17.168 10.7785C17.6908 10.7785 17.8844 11.0103 18.0315 11.3914C18.1155 11.5894 18.2853 11.6981 18.5092 11.6981C18.5891 11.6981 18.6741 11.687 18.7479 11.6665L18.7668 11.6598C19.0027 11.5681 19.1434 11.3885 19.1434 11.1789C19.1422 11.1128 19.1291 11.0475 19.1047 10.9859C18.7708 10.1703 18.1142 9.75677 17.151 9.75677C15.747 9.75677 14.8402 10.7718 14.8402 12.343C14.8402 13.899 15.7505 14.9049 17.1594 14.9049C18.1578 14.9049 18.811 14.489 19.1528 13.64C19.1879 13.5609 19.203 13.4944 19.203 13.4173C19.203 13.1954 19.0441 13.0162 18.7965 12.9556" fill="#0E66A8"/>
</svg>
