<svg height="512" viewBox="0 0 512 512" width="512" xmlns="http://www.w3.org/2000/svg"><g id="BULINE"><circle cx="256" cy="256" fill="#aa60fa" r="256"/></g><g id="Icons"><path d="m512 256c0 127.26-92.87 232.84-214.53 252.65a68 68 0 0 1 -8.2-19.19 89.6 89.6 0 0 1 -2.62-29.18c2.59-38.19-6.86-55.31-19.54-61.88-.63-.34-1.28-.64-1.93-.92-6.5-2.77-13.7-3-20.49-2.1a66.27 66.27 0 0 0 -10.14 2.24l-.15.05c-2.47.74-4.78 1.57-6.84 2.39a226.84 226.84 0 0 1 -34 10.69c-23.46 5.28-41.74 7.55-55.81 7.53-3 0-5.82-.11-8.45-.32a58.76 58.76 0 0 1 -18-3.9 29.8 29.8 0 0 1 -6.83-3.89 21.25 21.25 0 0 1 -7.26-9.94 23.67 23.67 0 0 1 -1.08-4.39 35 35 0 0 1 .19-10.58c.23-1.5.55-3 .93-4.56a77.14 77.14 0 0 1 3.69-10.88c.65-1.55 1.35-3.11 2.08-4.65 1-2.18 2.14-4.33 3.3-6.46q1.29-2.38 2.76-4.63c1-1.64 2.16-3.22 3.33-4.76a74.1 74.1 0 0 1 10.89-11.49c1.93-1.66 4-3.21 6-4.67.18-.13.37-.26.55-.37a76.82 76.82 0 0 1 7.85-4.79 82.69 82.69 0 0 1 19.35-7.22c49.87-11.8 2.61-84.18 2.61-84.18-8.52-10.75-15.79-20.67-21.91-29.83q-1.58-2.36-3-4.64-1.62-2.49-3.1-4.91-1.22-2-2.35-3.87c-1.26-2.11-2.44-4.17-3.56-6.19q-1.22-2.17-2.32-4.28c-1.85-3.53-3.49-6.9-4.93-10.14-.66-1.47-1.27-2.91-1.85-4.32q-2.19-5.4-3.63-10.26a79.23 79.23 0 0 1 -2-8.16c-3.59-19 2.11-31.07 12.46-38.62q.72-.54 1.47-1a50.32 50.32 0 0 1 11.71-5.62c10.35-3.54 22.51-4.79 34.22-4.85a164.88 164.88 0 0 1 64 13.09c79.89 33.18 68.48-47.18 68.48-47.18-7.94-42.38 25-47.63 61.42-41.6 87 40.87 147.23 129.29 147.23 231.78z" fill="#bf90fc"/><path d="m82.95 150.03h46.31v287.71h-46.31z" fill="#dbdbdb"/><g fill="#fff"><path d="m56.47 104.77h99.26a3.92 3.92 0 0 1 3.92 3.92v37.25a4.1 4.1 0 0 1 -4.1 4.1h-98.9a4.1 4.1 0 0 1 -4.1-4.1v-37.25a3.92 3.92 0 0 1 3.92-3.92z"/><rect height="10.53" rx="5.26" transform="matrix(.996 -.085 .085 .996 -13.6 9.64)" width="63.51" x="74.35" y="158.8"/><rect height="10.53" rx="5.26" transform="matrix(.996 -.085 .085 .996 -14.88 9.7)" width="63.51" x="74.35" y="173.85"/><rect height="10.53" rx="5.26" transform="matrix(.996 -.085 .085 .996 -16.16 9.75)" width="63.51" x="74.35" y="188.89"/><rect height="10.53" rx="5.26" transform="matrix(.996 -.085 .085 .996 -17.44 9.8)" width="63.51" x="74.35" y="203.93"/><rect height="10.53" rx="5.26" transform="matrix(.996 -.085 .085 .996 -18.73 9.86)" width="63.51" x="74.35" y="218.97"/><rect height="10.53" rx="5.26" transform="matrix(.996 -.085 .085 .996 -20.01 9.91)" width="63.51" x="74.35" y="234.01"/><rect height="10.53" rx="5.26" transform="matrix(.996 -.085 .085 .996 -21.29 9.97)" width="63.51" x="74.35" y="249.06"/><rect height="10.53" rx="5.26" transform="matrix(.996 -.085 .085 .996 -22.57 10.02)" width="63.51" x="74.35" y="264.1"/><rect height="10.53" rx="5.26" transform="matrix(.996 -.085 .085 .996 -23.85 10.08)" width="63.51" x="74.35" y="279.14"/><rect height="10.53" rx="5.26" transform="matrix(.996 -.085 .085 .996 -25.14 10.13)" width="63.51" x="74.35" y="294.18"/><rect height="10.53" rx="5.26" transform="matrix(.996 -.085 .085 .996 -26.42 10.19)" width="63.51" x="74.35" y="309.23"/><rect height="10.53" rx="5.26" transform="matrix(.996 -.085 .085 .996 -27.7 10.24)" width="63.51" x="74.35" y="324.27"/><rect height="10.53" rx="5.26" transform="matrix(.996 -.085 .085 .996 -28.98 10.3)" width="63.51" x="74.35" y="339.31"/><rect height="10.53" rx="5.26" transform="matrix(.996 -.085 .085 .996 -30.26 10.35)" width="63.51" x="74.35" y="354.35"/><rect height="10.53" rx="5.26" transform="matrix(.996 -.085 .085 .996 -31.55 10.41)" width="63.51" x="74.35" y="369.4"/><rect height="10.53" rx="5.26" transform="matrix(.996 -.085 .085 .996 -32.83 10.46)" width="63.51" x="74.35" y="384.44"/><rect height="10.53" rx="5.26" transform="matrix(.996 -.085 .085 .996 -34.11 10.52)" width="63.51" x="74.35" y="399.48"/><rect height="10.53" rx="5.26" transform="matrix(.996 -.085 .085 .996 -35.39 10.57)" width="63.51" x="74.35" y="414.52"/></g><path d="m82.95 150.04h11.58v287.7h-11.58z" fill="#c6c6c6"/><path d="m94.53 159.76v10.59l-11.58 1-2.78.23a5.28 5.28 0 0 1 -5.7-4.8 3.46 3.46 0 0 1 0-.46 5.25 5.25 0 0 1 4.82-5.24l3.68-.32z" fill="#dbdbdb"/><path d="m94.53 174.82v10.56l-11.58 1-2.78.24a5.27 5.27 0 0 1 -5.7-4.8 3.7 3.7 0 0 1 0-.47 5.24 5.24 0 0 1 4.82-5.22l3.68-.31z" fill="#dbdbdb"/><path d="m94.53 189.87v10.57l-11.58 1-2.78.23a5.28 5.28 0 0 1 -5.7-4.8 3.62 3.62 0 0 1 0-.46 5.22 5.22 0 0 1 4.82-5.23l3.68-.31z" fill="#dbdbdb"/><path d="m94.53 204.9v10.57l-11.58 1-2.78.23a5.27 5.27 0 0 1 -5.7-4.8 3.62 3.62 0 0 1 0-.46 5.24 5.24 0 0 1 4.82-5.22l3.68-.32z" fill="#dbdbdb"/><path d="m94.53 220v10.57l-11.58 1-2.78.23a5.26 5.26 0 0 1 -5.7-4.8 3.54 3.54 0 0 1 0-.46 5.21 5.21 0 0 1 4.82-5.22l3.68-.32z" fill="#dbdbdb"/><path d="m94.53 235v10.57l-11.58 1-2.78.23a5.25 5.25 0 0 1 -5.7-4.78 3.46 3.46 0 0 1 0-.46 5.24 5.24 0 0 1 4.82-5.24l3.71-.32z" fill="#dbdbdb"/><path d="m94.53 250v10.6l-11.58 1-2.78.23a5.25 5.25 0 0 1 -5.7-4.79 3.7 3.7 0 0 1 0-.47 5.22 5.22 0 0 1 4.82-5.22l3.71-.35z" fill="#dbdbdb"/><path d="m94.53 265.07v10.57l-11.58 1-2.78.24a5.27 5.27 0 0 1 -5.7-4.78 3.7 3.7 0 0 1 0-.47 5.25 5.25 0 0 1 4.82-5.24l3.68-.31z" fill="#dbdbdb"/><path d="m94.53 280.12v10.57l-11.58 1-2.78.23a5.27 5.27 0 0 1 -5.7-4.8 3.62 3.62 0 0 1 0-.46 5.23 5.23 0 0 1 4.82-5.23l3.68-.31z" fill="#dbdbdb"/><path d="m94.53 295.15v10.57l-11.58 1-2.78.23a5.27 5.27 0 0 1 -5.7-4.78 3.62 3.62 0 0 1 0-.46 5.24 5.24 0 0 1 4.82-5.24l3.68-.32z" fill="#dbdbdb"/><path d="m94.53 310.2v10.57l-11.58 1-2.78.23a5.26 5.26 0 0 1 -5.7-4.8 3.54 3.54 0 0 1 0-.46 5.24 5.24 0 0 1 4.82-5.22l3.68-.32z" fill="#dbdbdb"/><path d="m94.53 325.23v10.57l-11.58 1-2.78.23a5.25 5.25 0 0 1 -5.7-4.78 3.46 3.46 0 0 1 0-.46 5.25 5.25 0 0 1 4.82-5.24l3.68-.32z" fill="#dbdbdb"/><path d="m94.53 340.29v10.56l-11.58 1-2.78.24a5.27 5.27 0 0 1 -5.7-4.8 3.7 3.7 0 0 1 0-.47 5.24 5.24 0 0 1 4.82-5.22l3.68-.31z" fill="#dbdbdb"/><path d="m94.53 355.32v10.59l-11.53.99-2.78.23a5.3 5.3 0 0 1 -5.7-4.8 3.7 3.7 0 0 1 0-.47 5.25 5.25 0 0 1 4.82-5.24l3.68-.31z" fill="#dbdbdb"/><path d="m94.53 370.37v10.57l-11.58 1-2.78.23a5.27 5.27 0 0 1 -5.7-4.8 3.62 3.62 0 0 1 0-.46 5.25 5.25 0 0 1 4.82-5.23l3.68-.31z" fill="#dbdbdb"/><path d="m94.53 385.4v10.6l-11.53 1-2.78.23a5.29 5.29 0 0 1 -5.7-4.8 3.54 3.54 0 0 1 0-.46 5.24 5.24 0 0 1 4.82-5.24l3.68-.32z" fill="#dbdbdb"/><path d="m94.53 400.45v10.55l-11.53 1-2.78.23a5.26 5.26 0 0 1 -5.7-4.8 3.46 3.46 0 0 1 0-.46 5.24 5.24 0 0 1 4.82-5.22l3.68-.32z" fill="#dbdbdb"/><path d="m94.53 415.48v10.59l-11.58 1-2.78.23a5.28 5.28 0 0 1 -5.7-4.8 3.46 3.46 0 0 1 0-.46 5.25 5.25 0 0 1 4.82-5.24l3.68-.32z" fill="#dbdbdb"/><path d="m62.37 104.77h16.07a9.81 9.81 0 0 1 9.81 9.81v35.42a0 0 0 0 1 0 0h-30.5a5.2 5.2 0 0 1 -5.2-5.2v-30.22a9.81 9.81 0 0 1 9.82-9.81z" fill="#c6c6c6"/><path d="m98.07 104.77h16.07a9.81 9.81 0 0 1 9.81 9.81v35.42a0 0 0 0 1 0 0h-35.7a0 0 0 0 1 0 0v-35.42a9.81 9.81 0 0 1 9.82-9.81z" fill="#dbdbdb"/><path d="m133.77 104.77h16.07a9.81 9.81 0 0 1 9.81 9.81v30.25a5.2 5.2 0 0 1 -5.2 5.2h-30.45a0 0 0 0 1 0 0v-35.45a9.81 9.81 0 0 1 9.77-9.81z" fill="#e8e8e8"/><path d="m311 139.47a75.14 75.14 0 0 0 -12.34 6.23c-11 6.77-25.42 19.28-26.25 38.46v201.76l-21 49.42-22.34-49.42v-201.76c-1.36-31.15-37.24-44.69-37.24-44.69z" fill="#69b6e0"/><path d="m311 139.47h-119.16s35.88 13.54 37.24 44.69v201.76l4.16 9.19 18.18 40.23 5.49-12.92-12.71-28.12-3.79-8.38v-201.76a41.51 41.51 0 0 0 -8.89-23.72 9.21 9.21 0 0 1 7.39-14.74h59.75a75.14 75.14 0 0 1 12.34-6.23z" fill="#4592ad"/><path d="m272.58 191.74v14.25l-43.33 3.25v-14.25z" fill="#52a2c6"/><path d="m272.58 223.56v14.26l-43.33 3.25v-14.26z" fill="#52a2c6"/><path d="m272.58 255.39v14.26l-43.33 3.23v-14.26z" fill="#52a2c6"/><path d="m272.58 287.2v14.26l-43.33 3.25v-14.26z" fill="#52a2c6"/><path d="m272.58 319.03v14.26l-43.33 3.25v-14.26z" fill="#52a2c6"/><path d="m272.58 350.86v14.25l-43.33 3.23v-14.26z" fill="#52a2c6"/><path d="m272.58 382.66v3.25l-4.84 11.38-32.25 2.41-6.24-13.79z" fill="#52a2c6"/><path d="m319.47 127.53v8.31a3.62 3.62 0 0 1 -3.63 3.63h-128.84a3.63 3.63 0 0 1 -3.63-3.63v-8.31a3.29 3.29 0 0 1 3.29-3.29h49.19a2.2 2.2 0 0 1 2.17 1.84 11.16 11.16 0 0 0 11 9.33h4.75a11.23 11.23 0 0 0 7.9-3.27 11.11 11.11 0 0 0 3.12-6.06 2.21 2.21 0 0 1 2.17-1.84h49.19a3.29 3.29 0 0 1 3.32 3.29z" fill="#7cc8fb"/><rect fill="#69b6e0" height="14.22" rx="7.11" transform="matrix(1 -.07 .07 1 -13.92 19.33)" width="67.7" x="217.57" y="188.59"/><rect fill="#69b6e0" height="14.22" rx="7.11" transform="matrix(.997 -.075 .075 .997 -16.3 19.42)" width="67.7" x="217.57" y="220.41"/><rect fill="#69b6e0" height="14.22" rx="7.11" transform="matrix(.997 -.075 .075 .997 -18.67 19.51)" width="67.7" x="217.57" y="252.23"/><rect fill="#69b6e0" height="14.22" rx="7.11" transform="matrix(.997 -.075 .075 .997 -21.05 19.6)" width="67.7" x="217.57" y="284.06"/><rect fill="#69b6e0" height="14.22" rx="7.11" transform="matrix(.997 -.075 .075 .997 -23.43 19.69)" width="67.7" x="217.57" y="315.88"/><rect fill="#69b6e0" height="14.22" rx="7.11" transform="matrix(.997 -.075 .075 .997 -25.81 19.78)" width="67.7" x="217.57" y="347.7"/><rect fill="#69b6e0" height="14.22" rx="7.11" transform="matrix(.997 -.075 .075 .997 -28.18 19.86)" width="67.7" x="217.57" y="379.52"/><path d="m240.41 189.4v14.26l-11.33.85-3.8.28a7.12 7.12 0 0 1 -7.62-6.56c0-.18 0-.36 0-.53a7.12 7.12 0 0 1 6.58-7.09l4.86-.36z" fill="#52a2c6"/><path d="m229.08 222.07 11.33-.85v14.26l-11.33.85-3.8.28a7.12 7.12 0 0 1 -7.62-6.56c0-.18 0-.36 0-.53a7.12 7.12 0 0 1 6.58-7.09z" fill="#52a2c6"/><path d="m229.08 253.89 11.33-.85v14.26l-11.33.85-3.8.28a7.12 7.12 0 0 1 -7.62-6.56c0-.18 0-.36 0-.53a7.12 7.12 0 0 1 6.58-7.09z" fill="#52a2c6"/><path d="m229.08 285.71 11.33-.85v14.26l-11.33.85-3.8.28a7.12 7.12 0 0 1 -7.62-6.56c0-.18 0-.36 0-.53a7.12 7.12 0 0 1 6.58-7.09z" fill="#52a2c6"/><path d="m229.08 317.53 11.33-.85v14.26l-11.33.85-3.8.28a7.12 7.12 0 0 1 -7.62-6.56c0-.18 0-.36 0-.53a7.13 7.13 0 0 1 6.58-7.09z" fill="#52a2c6"/><path d="m229.08 349.35 11.33-.85v14.26l-11.33.85-3.8.28a7.12 7.12 0 0 1 -7.62-6.56c0-.18 0-.36 0-.53a7.13 7.13 0 0 1 6.58-7.09z" fill="#52a2c6"/><path d="m240.41 385.92 3.79 8.38-11 .81-8 .6a7.11 7.11 0 0 1 -7.62-6.56c0-.18 0-.36 0-.53a7.13 7.13 0 0 1 6.58-7.09l4.86-.36 11.33-.85z" fill="#52a2c6"/><ellipse cx="286.02" cy="131.86" fill="#adddf7" rx="9.17" ry="3.5"/><ellipse cx="303.35" cy="131.86" fill="#adddf7" rx="6.5" ry="2.48"/><path d="m348.82 108h104a7.58 7.58 0 0 1 7.58 7.58v26.27a0 0 0 0 1 0 0h-119.16a0 0 0 0 1 0 0v-26.25a7.58 7.58 0 0 1 7.58-7.6z" fill="#7cc8fb"/><path d="m460.39 141.87s-37.23 13.54-38.59 44.68v201.76l-4.8 11.37-16.14 38.06-16.15-35.64-6.24-13.79v-201.76c-1.36-31.14-37.23-44.68-37.23-44.68z" fill="#69b6e0"/><path d="m421.8 194.13v14.26l-43.33 3.25v-14.26z" fill="#52a2c6"/><path d="m421.8 225.96v14.26l-43.33 3.25v-14.26z" fill="#52a2c6"/><path d="m421.8 257.78v14.26l-43.33 3.23v-14.26z" fill="#52a2c6"/><path d="m421.8 289.59v14.26l-43.33 3.25v-14.26z" fill="#52a2c6"/><path d="m421.8 321.42v14.26l-43.33 3.25v-14.26z" fill="#52a2c6"/><path d="m421.8 353.25v14.26l-43.33 3.23v-14.26z" fill="#52a2c6"/><path d="m421.8 385.06v3.25l-4.84 11.37-32.25 2.42-6.24-13.79z" fill="#52a2c6"/><rect fill="#69b6e0" height="14.22" rx="7.11" transform="matrix(.997 -.075 .075 .997 -13.68 30.5)" width="67.7" x="366.97" y="190.99"/><rect fill="#69b6e0" height="14.22" rx="7.11" transform="matrix(.997 -.075 .075 .997 -16.06 30.59)" width="67.7" x="366.97" y="222.81"/><rect fill="#69b6e0" height="14.22" rx="7.11" transform="matrix(.997 -.075 .075 .997 -18.43 30.68)" width="67.7" x="366.97" y="254.63"/><rect fill="#69b6e0" height="14.22" rx="7.11" transform="matrix(.997 -.075 .075 .997 -20.81 30.77)" width="67.7" x="366.97" y="286.45"/><rect fill="#69b6e0" height="14.22" rx="7.11" transform="matrix(.997 -.075 .075 .997 -23.19 30.85)" width="67.7" x="366.97" y="318.27"/><rect fill="#69b6e0" height="14.22" rx="7.11" transform="matrix(1 -.07 .07 1 -25.57 30.94)" width="67.7" x="366.97" y="350.09"/><rect fill="#69b6e0" height="14.22" rx="7.11" transform="matrix(.997 -.075 .075 .997 -27.94 31.03)" width="67.7" x="366.97" y="381.91"/><path d="m460.4 141.87h-119.16s35.88 13.54 37.24 44.69v201.76l4.16 9.19 18.18 40.23 5.49-12.92-12.71-28.12-3.79-8.38v-201.76a41.51 41.51 0 0 0 -8.89-23.72 9.21 9.21 0 0 1 7.39-14.74h59.75a75.14 75.14 0 0 1 12.34-6.23z" fill="#4592ad"/><path d="m389.81 191.8v14.26l-11.33.85-3.8.28a7.12 7.12 0 0 1 -7.62-6.56c0-.18 0-.36 0-.53a7.12 7.12 0 0 1 6.58-7.09l4.86-.36z" fill="#52a2c6"/><path d="m378.48 224.47 11.33-.85v14.26l-11.33.85-3.8.28a7.12 7.12 0 0 1 -7.62-6.56c0-.18 0-.36 0-.53a7.12 7.12 0 0 1 6.58-7.09z" fill="#52a2c6"/><path d="m378.48 256.29 11.33-.85v14.26l-11.33.85-3.8.28a7.12 7.12 0 0 1 -7.62-6.56c0-.18 0-.36 0-.53a7.12 7.12 0 0 1 6.58-7.09z" fill="#52a2c6"/><path d="m378.48 288.11 11.33-.85v14.26l-11.33.85-3.8.28a7.12 7.12 0 0 1 -7.62-6.56c0-.18 0-.36 0-.53a7.12 7.12 0 0 1 6.58-7.09z" fill="#52a2c6"/><path d="m378.48 319.93 11.33-.85v14.26l-11.33.85-3.8.28a7.12 7.12 0 0 1 -7.62-6.56c0-.18 0-.36 0-.53a7.13 7.13 0 0 1 6.58-7.09z" fill="#52a2c6"/><path d="m378.48 351.75 11.33-.85v14.26l-11.33.85-3.8.28a7.12 7.12 0 0 1 -7.62-6.56c0-.18 0-.36 0-.53a7.13 7.13 0 0 1 6.58-7.09z" fill="#52a2c6"/><path d="m389.81 388.32 3.79 8.38-11 .81-8 .6a7.11 7.11 0 0 1 -7.62-6.56c0-.18 0-.36 0-.53a7.13 7.13 0 0 1 6.58-7.09l4.86-.36 11.33-.85z" fill="#52a2c6"/><ellipse cx="430.96" cy="124.94" fill="#adddf7" rx="9.17" ry="3.5"/><ellipse cx="448.3" cy="124.94" fill="#adddf7" rx="6.5" ry="2.48"/></g></svg>