<svg width="7" height="8" viewBox="0 0 7 8" fill="none" xmlns="http://www.w3.org/2000/svg">
<path d="M3.59092 7.13637C3.16005 7.13637 2.74782 7.05248 2.35424 6.88469C1.96065 6.71689 1.62196 6.4911 1.33817 6.20731C1.05437 5.92351 0.828581 5.58482 0.66079 5.19124C0.492999 4.79765 0.409103 4.38543 0.409103 3.95455C0.409103 3.52368 0.492999 3.11145 0.66079 2.71787C0.828581 2.32429 1.05437 1.9856 1.33817 1.7018C1.62196 1.41801 1.96065 1.19221 2.35424 1.02442C2.74782 0.856631 3.16005 0.772736 3.59092 0.772736C4.02179 0.772736 4.43402 0.856631 4.8276 1.02442C5.22119 1.19221 5.55988 1.41801 5.84367 1.7018C6.12747 1.9856 6.35326 2.32429 6.52105 2.71787C6.68884 3.11145 6.77274 3.52368 6.77274 3.95455C6.77274 4.38543 6.68884 4.79765 6.52105 5.19124C6.35326 5.58482 6.12747 5.92351 5.84367 6.20731C5.55988 6.4911 5.22119 6.71689 4.8276 6.88469C4.43402 7.05248 4.02179 7.13637 3.59092 7.13637ZM5.45838 2.87634C5.37759 2.79555 5.27919 2.75516 5.16319 2.75516C5.04718 2.75516 4.94982 2.79659 4.87111 2.87945L3.18698 4.55736L2.30452 3.6749C2.22581 3.59204 2.12845 3.55061 2.01244 3.55061C1.89644 3.55061 1.79804 3.59101 1.71725 3.67179C1.63646 3.75258 1.59607 3.85098 1.59607 3.96698C1.59607 4.08299 1.6375 4.18035 1.72036 4.25906L2.88247 5.42117C2.96533 5.50818 3.0689 5.54961 3.19319 5.54546C3.31334 5.54961 3.41484 5.50818 3.4977 5.42117L5.45527 3.46361C5.53813 3.38489 5.57956 3.28753 5.57956 3.17153C5.57956 3.05552 5.53916 2.95713 5.45838 2.87634Z" fill="#0E66A8"/>
</svg>
