<svg height="512" viewBox="0 0 512 512" width="512" xmlns="http://www.w3.org/2000/svg"><g id="BULINE"><circle cx="256" cy="256" fill="#fab3a7" r="256"/></g><g id="Icons"><path d="m512 256c0 141.38-114.62 256-256 256s-256-114.62-256-256a256 256 0 0 1 136.84-226.63c3.58 5.85 6.6 14 8.89 25.05 0 0 27.56 116.08 94.45 51.62 0 0 60.54-82.48 114.45 25.88q1.83 3.66 3.42 7.43c.46 1.09.91 2.19 1.34 3.3a157.54 157.54 0 0 1 6.84 22c.95 4 2.25 8.87 4 14a111.9 111.9 0 0 0 7.82 17.87c13.28 24 38.35 43.71 84.5 15.36a124.56 124.56 0 0 0 33.52-30.55c1.07-1.39 2.23-2.86 3.46-4.38a255.9 255.9 0 0 1 12.47 79.05z" fill="#e89489"/><path d="m234.75 211.75-27.81 27.81-71.42-71.42 35.35-35.35a11 11 0 0 1 15.56 0z" fill="#db1b1b"/><path d="m141.82 160.62a116 116 0 0 1 116 116v112.25a16.25 16.25 0 0 1 -16.25 16.25h-199.5a16.25 16.25 0 0 1 -16.25-16.25v-112.25a116 116 0 0 1 116-116z" fill="#4f4f74" transform="matrix(.707 -.707 .707 .707 -158.48 183.14)"/><path d="m141.82 183.29a94.49 94.49 0 0 1 94.49 94.49v91.44a13.24 13.24 0 0 1 -13.24 13.24h-162.5a13.24 13.24 0 0 1 -13.24-13.24v-91.44a94.49 94.49 0 0 1 94.49-94.49z" fill="#db1b1b" transform="matrix(.707 -.707 .707 .707 -158.48 183.14)"/><circle cx="137.91" cy="278.19" fill="#fc715a" r="73.5"/><path d="m82.54 176.21a115.75 115.75 0 0 0 -12.49 37.63 117.19 117.19 0 0 0 .19 35.62 115.47 115.47 0 0 0 32.52 63.64l79.37 79.37a16.26 16.26 0 0 0 23 0l-47.38 47.38a16.26 16.26 0 0 1 -23 0l-79.37-79.37a116.11 116.11 0 0 1 27.16-184.27z" fill="#404060"/><path d="m70.05 213.84a117.19 117.19 0 0 0 .19 35.62 115.47 115.47 0 0 0 32.52 63.64l74.83 74.83-22.81 22.81a13.22 13.22 0 0 1 -18.71 0l-64.66-64.65a94.5 94.5 0 0 1 -1.36-132.25z" fill="#b71616"/><path d="m70.24 249.46a115.47 115.47 0 0 0 32.52 63.64l38.51 38.51a73.51 73.51 0 0 1 -71-102.15z" fill="#d85c4c"/><path d="m192 358.55 24.74 24.73a6.77 6.77 0 0 1 0 9.55l-53.17 53.17a29 29 0 0 1 -41 0l-68.9-68.85a6.76 6.76 0 0 1 0-9.55l22.89-22.89a6.8 6.8 0 0 1 9.94.35c1.07 1.21 2.19 2.41 3.35 3.57a73.53 73.53 0 0 0 93 9.05 7.27 7.27 0 0 1 9.15.87z" fill="#27273d"/><path d="m205.52 372 11.26 11.26a6.76 6.76 0 0 1 0 9.55l-53.21 53.19a29 29 0 0 1 -41 0l-68.9-68.85a6.76 6.76 0 0 1 0-9.55l12.2-12.19 57.63 57.59a29 29 0 0 0 41 0z" fill="#1a1a28"/><circle cx="250.66" cy="287.76" fill="#27273d" r="13.17"/><rect fill="#fff" height="24.33" rx="10.83" transform="matrix(.707 -.707 .707 .707 -142.74 146.23)" width="72" x="69.14" y="233.26"/><rect fill="#fff" height="24.33" rx="10.83" transform="matrix(.707 -.707 .707 .707 -169.59 211.05)" width="72" x="133.96" y="298.07"/><rect fill="#fff" height="24.33" rx="12.17" transform="matrix(.707 -.707 .707 .707 -156.27 178.87)" width="130.67" x="72.45" y="265.9"/><path d="m242.94 140.94h249.67v54.58h-249.67z" fill="#f6c752" transform="matrix(.707 -.707 .707 .707 -11.24 309.33)"/><path d="m462.5 86.41 12.85 12.85-176.55 176.54-38.6-38.6 12.38-12.37 8.93 8.93a23.79 23.79 0 0 0 33.64 0z" fill="#f7bb38"/><path d="m440.18 56.2h24.67v54.58h-24.67z" fill="#6bb4dd" transform="matrix(.707 -.707 .707 .707 73.5 344.43)"/><path d="m500.78 82.89-17.56 15.18a6.89 6.89 0 0 1 -9.4-.34l-35.55-35.54a6.92 6.92 0 0 1 -.34-9.41l15.18-17.56a11 11 0 0 1 16.07-.58l32.18 32.19a11 11 0 0 1 -.58 16.06z" fill="#7cc8fb"/><g fill="#27273d"><path d="m283.15 218.58h6.67a0 0 0 0 1 0 0v33.67a3.33 3.33 0 0 1 -3.33 3.33 3.33 3.33 0 0 1 -3.33-3.33v-33.67a0 0 0 0 1 0 0z" transform="matrix(.707 -.707 .707 .707 -83.73 272.02)"/><path d="m300.36 201.38h6.64a0 0 0 0 1 0 0v33.62a3.33 3.33 0 0 1 -3.33 3.33 3.33 3.33 0 0 1 -3.33-3.33v-33.62a0 0 0 0 1 .02 0z" transform="matrix(.707 -.707 .707 .707 -66.53 279.14)"/><path d="m317.56 184.17h6.67a0 0 0 0 1 0 0v33.67a3.33 3.33 0 0 1 -3.33 3.33 3.33 3.33 0 0 1 -3.33-3.33v-33.67a0 0 0 0 1 -.01 0z" transform="matrix(.707 -.707 .707 .707 -49.32 286.27)"/><path d="m334.77 167h6.67a0 0 0 0 1 0 0v33.67a3.33 3.33 0 0 1 -3.34 3.33 3.33 3.33 0 0 1 -3.33-3.33v-33.67a0 0 0 0 1 0 0z" transform="matrix(.707 -.707 .707 .707 -32.12 293.4)"/><path d="m352 149.76h6.67a0 0 0 0 1 0 0v33.67a3.33 3.33 0 0 1 -3.33 3.33 3.33 3.33 0 0 1 -3.33-3.33v-33.67a0 0 0 0 1 -.01 0z" transform="matrix(.707 -.707 .707 .707 -14.91 300.52)"/><path d="m369.18 132.55h6.67a0 0 0 0 1 0 0v33.67a3.33 3.33 0 0 1 -3.33 3.33 3.33 3.33 0 0 1 -3.33-3.33v-33.67a0 0 0 0 1 -.01 0z" transform="matrix(.707 -.707 .707 .707 2.3 307.65)"/><path d="m386.39 115.34h6.67a0 0 0 0 1 0 0v33.66a3.33 3.33 0 0 1 -3.33 3.33 3.33 3.33 0 0 1 -3.33-3.33v-33.66a0 0 0 0 1 0 0z" transform="matrix(.707 -.707 .707 .707 19.5 314.78)"/><path d="m403.6 98.14h6.67a0 0 0 0 1 0 0v33.67a3.33 3.33 0 0 1 -3.33 3.33 3.33 3.33 0 0 1 -3.33-3.33v-33.67a0 0 0 0 1 -.01 0z" transform="matrix(.707 -.707 .707 .707 36.71 321.91)"/><path d="m420.8 80.93h6.67a0 0 0 0 1 0 0v33.67a3.33 3.33 0 0 1 -3.33 3.33 3.33 3.33 0 0 1 -3.33-3.33v-33.67a0 0 0 0 1 -.01 0z" transform="matrix(.707 -.707 .707 .707 53.92 329.03)"/></g></g></svg>