<svg height="512" viewBox="0 0 512 512" width="512" xmlns="http://www.w3.org/2000/svg"><g id="BULINE"><circle cx="256" cy="256" fill="#00b564" r="256"/></g><g id="Icons"><path d="m512 256a255.43 255.43 0 0 1 -70.22 176.1 302.36 302.36 0 0 1 -37.25-40 65.39 65.39 0 0 1 -13.94-41.45 64 64 0 0 1 .81-9.13c.23-1.44.42-2.84.55-4.2 3-30.38-17.65-39.88-34.25-42.67a62.4 62.4 0 0 0 -19.81-.08 66.59 66.59 0 0 0 -8.57 1.9c-88.49 25.89-118.36 10-125.12-14.15a48.21 48.21 0 0 1 -1.6-14.16c.65-27.1 18.84-50.66 44.56-59.23 2-.68 4.12-1.4 6.23-2.16 1-.36 2-.72 2.95-1.1a156.12 156.12 0 0 0 28.66-13.82c25.56-16.37 37.85-40.91-13.24-74-34.48-22.33-44.08-45.37-41.55-66.18 1.86-15.37 10.36-29.52 20.34-41.25 3.17-3.73 6.49-7.22 9.79-10.42 139.38 2.32 251.66 116 251.66 256z" fill="#02a054"/><path d="m196.46 353.68 154-154a65.49 65.49 0 0 0 85.52-79.68l-36.18 36.18a10.27 10.27 0 0 1 -9.15 2.85l-25.48-4.66a10.32 10.32 0 0 1 -8.3-8.29l-4.67-25.49a10.33 10.33 0 0 1 2.86-9.16l36.13-36.13a65.55 65.55 0 0 0 -79.74 85.58l-153.95 154a65.49 65.49 0 0 0 -85.5 79.63l36.18-36.18a10.34 10.34 0 0 1 9.15-2.85l25.49 4.66a10.34 10.34 0 0 1 8.29 8.3l4.67 25.48a10.33 10.33 0 0 1 -2.86 9.16l-36.18 36.18a65.55 65.55 0 0 0 79.74-85.58z" fill="#7cc8fb"/><g fill="#6fb3d8"><path d="m330.84 188.46c-1-.88-2.06-1.8-3.06-2.74a65.54 65.54 0 0 1 63.41-110.41l-5.61 5.6a65.52 65.52 0 0 0 -54.74 107.55z"/><path d="m77.58 388.91-5.6 5.6a65.53 65.53 0 0 1 108.15-65.66 63.06 63.06 0 0 1 5 5.28 65.53 65.53 0 0 0 -107.55 54.78z"/><rect height="197.02" rx="13.75" transform="matrix(.707 .707 -.707 .707 256.52 -103.69)" width="27.51" x="239.68" y="159.3"/></g><path d="m187.83 330.27a13.52 13.52 0 0 1 -4.06-2.81 13.75 13.75 0 0 1 0-19.45l119.87-119.86a13.75 13.75 0 0 1 19.45 0 13.9 13.9 0 0 1 2.81 4.06 13.74 13.74 0 0 0 -15.4 2.79l-119.86 119.88a13.74 13.74 0 0 0 -2.81 15.39z" fill="#65a7c4"/><ellipse cx="399.92" cy="181.4" fill="#a5dbf9" rx="10.25" ry="5.12" transform="matrix(.959 -.284 .284 .959 -35.05 121.01)"/><ellipse cx="379.94" cy="187.32" fill="#a5dbf9" rx="7.21" ry="3.61" transform="matrix(.959 -.284 .284 .959 -37.55 115.59)"/><path d="m209.03 163.93h36.51v140.71h-36.51z" fill="#4f4f74" transform="matrix(.707 -.707 .707 .707 -99.1 229.33)"/><path d="m165.72 173.2-23 23 24.28 9.66a5.23 5.23 0 0 0 5.89-1.05l12.2-12.21 12.21-12.21a5.21 5.21 0 0 0 1.05-5.88l-9.64-24.33z" fill="#32314b"/><path d="m61.74 160.73h39.82v34.29h-39.82z" fill="#32314b" transform="matrix(.707 -.707 .707 .707 -101.86 109.83)"/><rect fill="#3e436d" height="76.99" rx="19.25" transform="matrix(.707 -.707 .707 .707 -120.27 102.21)" width="44.1" x="41.19" y="157.79"/><path d="m94.23 219.45a17.35 17.35 0 0 1 -1.79 2.07l-4 4a19.24 19.24 0 0 1 -27.22 0l-27.22-27.26a19.26 19.26 0 0 1 0-27.26l4-4a17.35 17.35 0 0 1 2.07-1.79 19.24 19.24 0 0 0 1.78 25.15l27.22 27.23a19.26 19.26 0 0 0 25.16 1.86z" fill="#303656"/><path d="m130.46 74.62-53.29 53.29a12.25 12.25 0 0 0 0 17.33l51.47 51.47a12.25 12.25 0 0 0 17.32 0l44.63-44.63a12.25 12.25 0 0 0 0-17.32 14.67 14.67 0 0 1 -3.92-13.91c11.2-44.7 41.46-56.45 57.22-59.53a4.53 4.53 0 0 0 1.91-8c-51.31-38.99-115.34 21.3-115.34 21.3z" fill="#3e436d"/><path d="m178.76 148.58-39.76 39.74a5.32 5.32 0 0 1 -7.51 0l-44.09-44.12a5.31 5.31 0 0 1 7.51-7.51l40.36 40.36 33.47-33.47c-3.32-9.56-8.17-36 23-67.12a5.31 5.31 0 0 1 7.51 7.54c-32.88 32.88-19.72 58.06-19.58 58.31a5.32 5.32 0 0 1 -.91 6.27z" fill="#303656"/><ellipse cx="179.01" cy="62.08" fill="#5a618c" rx="17.04" ry="6.86" transform="matrix(.944 -.331 .331 .944 -10.46 62.71)"/><ellipse cx="206.57" cy="52.42" fill="#5a618c" rx="9.51" ry="3.83" transform="matrix(.944 -.331 .331 .944 -5.71 71.28)"/><path d="m427.22 400.12a24.13 24.13 0 1 1 -34.1 34.11l-5.15-5.5-15.17-16.12-79.42-84.53-15.16-16.08-14.1-15 25.81-25.82 15 14.1 16.14 15.16 84.53 79.42 16.13 15.14z" fill="#e88032"/><path d="m321.07 300.39-27.69 27.69-15.16-16.13 26.71-26.72z" fill="#eab692"/><path d="m421.73 394.97-33.76 33.77-15.17-16.13 32.8-32.8z" fill="#eab692"/></g></svg>