<svg width="33" height="33" viewBox="0 0 33 33" fill="none" xmlns="http://www.w3.org/2000/svg">
<rect width="33" height="33" rx="4" fill="#FFEBBE"/>
<path d="M19.8526 6C16.0579 6 12.9263 8.99474 12.7421 12.7659C8.98413 12.9507 6 16.0563 6 19.8644C6 23.7835 9.20529 27 13.1105 27H24.1263C25.7105 27 27 25.706 27 24.1532V13.1356C27 9.17964 23.7947 6 19.8526 6ZM12.2263 23.8575C10.7526 23.4879 9.57369 22.3047 9.20529 20.8627C9.16837 20.6779 9.16837 20.604 9.13154 20.419H12.2263V23.8576V23.8575ZM15.9842 23.9685H13.0737V17.2396H15.9842V23.9685ZM19.9263 23.9685H17.0158V11.6936H19.9263V23.9685ZM23.8685 23.3769C23.8685 23.7096 23.6105 24.0054 23.279 24.0054H20.9211V14.0599H23.8685V23.3769Z" fill="#FAB10A"/>
</svg>
